<svg xmlns="http://www.w3.org/2000/svg" xmlns:xlink="http://www.w3.org/1999/xlink" contentStyleType="text/css" data-diagram-type="CLASS" height="843px" preserveAspectRatio="none" style="width:1575px;height:843px;background:#FFFFFF;" version="1.1" viewBox="0 0 1575 843" width="1575px" zoomAndPan="magnify"><defs/><g><!--class ???????--><g class="entity" data-entity="&#1055;&#1088;&#1086;&#1076;&#1091;&#1082;&#1090;" data-source-line="2" data-uid="ent0002" id="entity_&#1055;&#1088;&#1086;&#1076;&#1091;&#1082;&#1090;"><rect fill="#F1F1F1" height="145.7813" rx="2.5" ry="2.5" style="stroke:#181818;stroke-width:0.5;" width="351.3701" x="294" y="691"/><ellipse cx="434.1572" cy="707" fill="#C2C2C2" rx="11" ry="11" style="stroke:#181818;stroke-width:1;"/><path d="M437.126,712.6406 Q436.5479,712.9375 435.9072,713.0781 Q435.2666,713.2344 434.5635,713.2344 Q432.0635,713.2344 430.7354,711.5938 Q429.4229,709.9375 429.4229,706.8125 Q429.4229,703.6875 430.7354,702.0313 Q432.0635,700.375 434.5635,700.375 Q435.2666,700.375 435.9072,700.5313 Q436.5635,700.6875 437.126,700.9844 L437.126,703.7031 Q436.501,703.125 435.9072,702.8594 Q435.3135,702.5781 434.6885,702.5781 Q433.3447,702.5781 432.6572,703.6563 Q431.9697,704.7188 431.9697,706.8125 Q431.9697,708.9063 432.6572,709.9844 Q433.3447,711.0469 434.6885,711.0469 Q435.3135,711.0469 435.9072,710.7813 Q436.501,710.5 437.126,709.9219 L437.126,712.6406 Z " fill="#000000"/><text fill="#000000" font-family="sans-serif" font-size="14" lengthAdjust="spacing" textLength="62.5557" x="454.6572" y="711.8467">&#1055;&#1088;&#1086;&#1076;&#1091;&#1082;&#1090;</text><line style="stroke:#181818;stroke-width:0.5;" x1="295" x2="644.3701" y1="723" y2="723"/><rect fill="none" height="6" style="stroke:#595959;stroke-width:1;" width="6" x="302" y="733.6484"/><text fill="#000000" font-family="sans-serif" font-size="14" lengthAdjust="spacing" textLength="168.458" x="314" y="739.9951">&#1080;&#1076;&#1077;&#1085;&#1090;&#1080;&#1092;&#1080;&#1082;&#1072;&#1090;&#1086;&#1088;: String</text><rect fill="none" height="6" style="stroke:#595959;stroke-width:1;" width="6" x="302" y="749.9453"/><text fill="#000000" font-family="sans-serif" font-size="14" lengthAdjust="spacing" textLength="119.8203" x="314" y="756.292">&#1085;&#1072;&#1079;&#1074;&#1072;&#1085;&#1080;&#1077;: String</text><rect fill="none" height="6" style="stroke:#595959;stroke-width:1;" width="6" x="302" y="766.2422"/><text fill="#000000" font-family="sans-serif" font-size="14" lengthAdjust="spacing" textLength="151.5049" x="314" y="772.5889">&#1089;&#1088;&#1086;&#1082;_&#1075;&#1086;&#1076;&#1085;&#1086;&#1089;&#1090;&#1080;: Date</text><rect fill="none" height="6" style="stroke:#595959;stroke-width:1;" width="6" x="302" y="782.5391"/><text fill="#000000" font-family="sans-serif" font-size="14" lengthAdjust="spacing" textLength="144.1494" x="314" y="788.8857">&#1082;&#1086;&#1083;&#1080;&#1095;&#1077;&#1089;&#1090;&#1074;&#1086;: Integer</text><line style="stroke:#181818;stroke-width:0.5;" x1="295" x2="644.3701" y1="796.1875" y2="796.1875"/><ellipse cx="305" cy="809.8359" fill="#A6A6A6" rx="3" ry="3" style="stroke:#545454;stroke-width:1;"/><text fill="#000000" font-family="sans-serif" font-size="14" lengthAdjust="spacing" textLength="227.418" x="314" y="813.1826">&#1087;&#1086;&#1083;&#1091;&#1095;&#1080;&#1090;&#1100;&#1057;&#1088;&#1086;&#1082;&#1043;&#1086;&#1076;&#1085;&#1086;&#1089;&#1090;&#1080;(): Date</text><ellipse cx="305" cy="826.1328" fill="#A6A6A6" rx="3" ry="3" style="stroke:#545454;stroke-width:1;"/><text fill="#000000" font-family="sans-serif" font-size="14" lengthAdjust="spacing" textLength="325.3701" x="314" y="829.4795">&#1091;&#1089;&#1090;&#1072;&#1085;&#1086;&#1074;&#1080;&#1090;&#1100;&#1050;&#1086;&#1083;&#1080;&#1095;&#1077;&#1089;&#1090;&#1074;&#1086;(&#1082;&#1086;&#1083;&#1080;&#1095;&#1077;&#1089;&#1090;&#1074;&#1086;: Integer)</text></g><!--class ????_???????--><g class="entity" data-entity="&#1059;&#1095;&#1105;&#1090;_&#1079;&#1072;&#1087;&#1072;&#1089;&#1086;&#1074;" data-source-line="10" data-uid="ent0003" id="entity_&#1059;&#1095;&#1105;&#1090;_&#1079;&#1072;&#1087;&#1072;&#1089;&#1086;&#1074;"><rect fill="#F1F1F1" height="129.4844" rx="2.5" ry="2.5" style="stroke:#181818;stroke-width:0.5;" width="380.5322" x="7" y="476.5"/><ellipse cx="143.5957" cy="492.5" fill="#C2C2C2" rx="11" ry="11" style="stroke:#181818;stroke-width:1;"/><path d="M146.5645,498.1406 Q145.9863,498.4375 145.3457,498.5781 Q144.7051,498.7344 144.002,498.7344 Q141.502,498.7344 140.1738,497.0938 Q138.8613,495.4375 138.8613,492.3125 Q138.8613,489.1875 140.1738,487.5313 Q141.502,485.875 144.002,485.875 Q144.7051,485.875 145.3457,486.0313 Q146.002,486.1875 146.5645,486.4844 L146.5645,489.2031 Q145.9395,488.625 145.3457,488.3594 Q144.752,488.0781 144.127,488.0781 Q142.7832,488.0781 142.0957,489.1563 Q141.4082,490.2188 141.4082,492.3125 Q141.4082,494.4063 142.0957,495.4844 Q142.7832,496.5469 144.127,496.5469 Q144.752,496.5469 145.3457,496.2813 Q145.9395,496 146.5645,495.4219 L146.5645,498.1406 Z " fill="#000000"/><text fill="#000000" font-family="sans-serif" font-size="14" lengthAdjust="spacing" textLength="98.8408" x="164.0957" y="497.3467">&#1059;&#1095;&#1105;&#1090;_&#1079;&#1072;&#1087;&#1072;&#1089;&#1086;&#1074;</text><line style="stroke:#181818;stroke-width:0.5;" x1="8" x2="386.5322" y1="508.5" y2="508.5"/><rect fill="none" height="6" style="stroke:#595959;stroke-width:1;" width="6" x="15" y="519.1484"/><text fill="#000000" font-family="sans-serif" font-size="14" lengthAdjust="spacing" textLength="191.8916" x="27" y="525.4951">&#1087;&#1088;&#1086;&#1076;&#1091;&#1082;&#1090;&#1099;: List&lt;&#1055;&#1088;&#1086;&#1076;&#1091;&#1082;&#1090;&gt;</text><line style="stroke:#181818;stroke-width:0.5;" x1="8" x2="386.5322" y1="532.7969" y2="532.7969"/><ellipse cx="18" cy="546.4453" fill="#A6A6A6" rx="3" ry="3" style="stroke:#545454;stroke-width:1;"/><text fill="#000000" font-family="sans-serif" font-size="14" lengthAdjust="spacing" textLength="275.5977" x="27" y="549.792">&#1076;&#1086;&#1073;&#1072;&#1074;&#1080;&#1090;&#1100;&#1055;&#1088;&#1086;&#1076;&#1091;&#1082;&#1090;(&#1087;&#1088;&#1086;&#1076;&#1091;&#1082;&#1090;: &#1055;&#1088;&#1086;&#1076;&#1091;&#1082;&#1090;)</text><ellipse cx="18" cy="562.7422" fill="#A6A6A6" rx="3" ry="3" style="stroke:#545454;stroke-width:1;"/><text fill="#000000" font-family="sans-serif" font-size="14" lengthAdjust="spacing" textLength="267.3809" x="27" y="566.0889">&#1091;&#1076;&#1072;&#1083;&#1080;&#1090;&#1100;&#1055;&#1088;&#1086;&#1076;&#1091;&#1082;&#1090;(&#1087;&#1088;&#1086;&#1076;&#1091;&#1082;&#1090;: &#1055;&#1088;&#1086;&#1076;&#1091;&#1082;&#1090;)</text><ellipse cx="18" cy="579.0391" fill="#A6A6A6" rx="3" ry="3" style="stroke:#545454;stroke-width:1;"/><text fill="#000000" font-family="sans-serif" font-size="14" lengthAdjust="spacing" textLength="322.6768" x="27" y="582.3857">&#1087;&#1088;&#1086;&#1074;&#1077;&#1088;&#1080;&#1090;&#1100;&#1057;&#1088;&#1086;&#1082;&#1080;&#1043;&#1086;&#1076;&#1085;&#1086;&#1089;&#1090;&#1080;(): List&lt;&#1055;&#1088;&#1086;&#1076;&#1091;&#1082;&#1090;&gt;</text><ellipse cx="18" cy="595.3359" fill="#A6A6A6" rx="3" ry="3" style="stroke:#545454;stroke-width:1;"/><text fill="#000000" font-family="sans-serif" font-size="14" lengthAdjust="spacing" textLength="354.5322" x="27" y="598.6826">&#1087;&#1086;&#1083;&#1091;&#1095;&#1080;&#1090;&#1100;&#1044;&#1086;&#1089;&#1090;&#1091;&#1087;&#1085;&#1099;&#1077;&#1055;&#1088;&#1086;&#1076;&#1091;&#1082;&#1090;&#1099;(): List&lt;&#1055;&#1088;&#1086;&#1076;&#1091;&#1082;&#1090;&gt;</text></g><!--class ??????--><g class="entity" data-entity="&#1056;&#1077;&#1094;&#1077;&#1087;&#1090;" data-source-line="17" data-uid="ent0004" id="entity_&#1056;&#1077;&#1094;&#1077;&#1087;&#1090;"><rect fill="#F1F1F1" height="145.7813" rx="2.5" ry="2.5" style="stroke:#181818;stroke-width:0.5;" width="453.1025" x="423" y="468"/><ellipse cx="619.0479" cy="484" fill="#C2C2C2" rx="11" ry="11" style="stroke:#181818;stroke-width:1;"/><path d="M622.0166,489.6406 Q621.4385,489.9375 620.7979,490.0781 Q620.1572,490.2344 619.4541,490.2344 Q616.9541,490.2344 615.626,488.5938 Q614.3135,486.9375 614.3135,483.8125 Q614.3135,480.6875 615.626,479.0313 Q616.9541,477.375 619.4541,477.375 Q620.1572,477.375 620.7979,477.5313 Q621.4541,477.6875 622.0166,477.9844 L622.0166,480.7031 Q621.3916,480.125 620.7979,479.8594 Q620.2041,479.5781 619.5791,479.5781 Q618.2354,479.5781 617.5479,480.6563 Q616.8604,481.7188 616.8604,483.8125 Q616.8604,485.9063 617.5479,486.9844 Q618.2354,488.0469 619.5791,488.0469 Q620.2041,488.0469 620.7979,487.7813 Q621.3916,487.5 622.0166,486.9219 L622.0166,489.6406 Z " fill="#000000"/><text fill="#000000" font-family="sans-serif" font-size="14" lengthAdjust="spacing" textLength="52.5068" x="639.5479" y="488.8467">&#1056;&#1077;&#1094;&#1077;&#1087;&#1090;</text><line style="stroke:#181818;stroke-width:0.5;" x1="424" x2="875.1025" y1="500" y2="500"/><rect fill="none" height="6" style="stroke:#595959;stroke-width:1;" width="6" x="431" y="510.6484"/><text fill="#000000" font-family="sans-serif" font-size="14" lengthAdjust="spacing" textLength="168.458" x="443" y="516.9951">&#1080;&#1076;&#1077;&#1085;&#1090;&#1080;&#1092;&#1080;&#1082;&#1072;&#1090;&#1086;&#1088;: String</text><rect fill="none" height="6" style="stroke:#595959;stroke-width:1;" width="6" x="431" y="526.9453"/><text fill="#000000" font-family="sans-serif" font-size="14" lengthAdjust="spacing" textLength="119.8203" x="443" y="533.292">&#1085;&#1072;&#1079;&#1074;&#1072;&#1085;&#1080;&#1077;: String</text><rect fill="none" height="6" style="stroke:#595959;stroke-width:1;" width="6" x="431" y="543.2422"/><text fill="#000000" font-family="sans-serif" font-size="14" lengthAdjust="spacing" textLength="218.5176" x="443" y="549.5889">&#1080;&#1085;&#1075;&#1088;&#1077;&#1076;&#1080;&#1077;&#1085;&#1090;&#1099;: List&lt;&#1055;&#1088;&#1086;&#1076;&#1091;&#1082;&#1090;&gt;</text><rect fill="none" height="6" style="stroke:#595959;stroke-width:1;" width="6" x="431" y="559.5391"/><text fill="#000000" font-family="sans-serif" font-size="14" lengthAdjust="spacing" textLength="138.4072" x="443" y="565.8857">&#1080;&#1085;&#1089;&#1090;&#1088;&#1091;&#1082;&#1094;&#1080;&#1080;: String</text><line style="stroke:#181818;stroke-width:0.5;" x1="424" x2="875.1025" y1="573.1875" y2="573.1875"/><ellipse cx="434" cy="586.8359" fill="#A6A6A6" rx="3" ry="3" style="stroke:#545454;stroke-width:1;"/><text fill="#000000" font-family="sans-serif" font-size="14" lengthAdjust="spacing" textLength="299.5439" x="443" y="590.1826">&#1087;&#1086;&#1083;&#1091;&#1095;&#1080;&#1090;&#1100;&#1048;&#1085;&#1075;&#1088;&#1077;&#1076;&#1080;&#1077;&#1085;&#1090;&#1099;(): List&lt;&#1055;&#1088;&#1086;&#1076;&#1091;&#1082;&#1090;&gt;</text><ellipse cx="434" cy="603.1328" fill="#A6A6A6" rx="3" ry="3" style="stroke:#545454;stroke-width:1;"/><text fill="#000000" font-family="sans-serif" font-size="14" lengthAdjust="spacing" textLength="427.1025" x="443" y="606.4795">&#1089;&#1075;&#1077;&#1085;&#1077;&#1088;&#1080;&#1088;&#1086;&#1074;&#1072;&#1090;&#1100;&#1056;&#1077;&#1094;&#1077;&#1087;&#1090;(&#1087;&#1088;&#1086;&#1076;&#1091;&#1082;&#1090;&#1099;: List&lt;&#1055;&#1088;&#1086;&#1076;&#1091;&#1082;&#1090;&gt;): &#1056;&#1077;&#1094;&#1077;&#1087;&#1090;</text></g><!--class ????????????--><g class="entity" data-entity="&#1055;&#1086;&#1083;&#1100;&#1079;&#1086;&#1074;&#1072;&#1090;&#1077;&#1083;&#1100;" data-source-line="25" data-uid="ent0005" id="entity_&#1055;&#1086;&#1083;&#1100;&#1079;&#1086;&#1074;&#1072;&#1090;&#1077;&#1083;&#1100;"><rect fill="#F1F1F1" height="129.4844" rx="2.5" ry="2.5" style="stroke:#181818;stroke-width:0.5;" width="488.6563" x="764" y="699.5"/><ellipse cx="952.5283" cy="715.5" fill="#C2C2C2" rx="11" ry="11" style="stroke:#181818;stroke-width:1;"/><path d="M955.4971,721.1406 Q954.9189,721.4375 954.2783,721.5781 Q953.6377,721.7344 952.9346,721.7344 Q950.4346,721.7344 949.1064,720.0938 Q947.7939,718.4375 947.7939,715.3125 Q947.7939,712.1875 949.1064,710.5313 Q950.4346,708.875 952.9346,708.875 Q953.6377,708.875 954.2783,709.0313 Q954.9346,709.1875 955.4971,709.4844 L955.4971,712.2031 Q954.8721,711.625 954.2783,711.3594 Q953.6846,711.0781 953.0596,711.0781 Q951.7158,711.0781 951.0283,712.1563 Q950.3408,713.2188 950.3408,715.3125 Q950.3408,717.4063 951.0283,718.4844 Q951.7158,719.5469 953.0596,719.5469 Q953.6846,719.5469 954.2783,719.2813 Q954.8721,719 955.4971,718.4219 L955.4971,721.1406 Z " fill="#000000"/><text fill="#000000" font-family="sans-serif" font-size="14" lengthAdjust="spacing" textLength="103.0996" x="973.0283" y="720.3467">&#1055;&#1086;&#1083;&#1100;&#1079;&#1086;&#1074;&#1072;&#1090;&#1077;&#1083;&#1100;</text><line style="stroke:#181818;stroke-width:0.5;" x1="765" x2="1251.6563" y1="731.5" y2="731.5"/><rect fill="none" height="6" style="stroke:#595959;stroke-width:1;" width="6" x="772" y="742.1484"/><text fill="#000000" font-family="sans-serif" font-size="14" lengthAdjust="spacing" textLength="168.458" x="784" y="748.4951">&#1080;&#1076;&#1077;&#1085;&#1090;&#1080;&#1092;&#1080;&#1082;&#1072;&#1090;&#1086;&#1088;: String</text><rect fill="none" height="6" style="stroke:#595959;stroke-width:1;" width="6" x="772" y="758.4453"/><text fill="#000000" font-family="sans-serif" font-size="14" lengthAdjust="spacing" textLength="79.0303" x="784" y="764.792">&#1080;&#1084;&#1103;: String</text><rect fill="none" height="6" style="stroke:#595959;stroke-width:1;" width="6" x="772" y="774.7422"/><text fill="#000000" font-family="sans-serif" font-size="14" lengthAdjust="spacing" textLength="260.4014" x="784" y="781.0889">&#1087;&#1088;&#1077;&#1076;&#1087;&#1086;&#1095;&#1090;&#1077;&#1085;&#1080;&#1103;: Map&lt;String, String&gt;</text><line style="stroke:#181818;stroke-width:0.5;" x1="765" x2="1251.6563" y1="788.3906" y2="788.3906"/><ellipse cx="775" cy="802.0391" fill="#A6A6A6" rx="3" ry="3" style="stroke:#545454;stroke-width:1;"/><text fill="#000000" font-family="sans-serif" font-size="14" lengthAdjust="spacing" textLength="462.6563" x="784" y="805.3857">&#1091;&#1089;&#1090;&#1072;&#1085;&#1086;&#1074;&#1080;&#1090;&#1100;&#1055;&#1088;&#1077;&#1076;&#1087;&#1086;&#1095;&#1090;&#1077;&#1085;&#1080;&#1103;(&#1087;&#1088;&#1077;&#1076;&#1087;&#1086;&#1095;&#1090;&#1077;&#1085;&#1080;&#1103;: Map&lt;String, String&gt;)</text><ellipse cx="775" cy="818.3359" fill="#A6A6A6" rx="3" ry="3" style="stroke:#545454;stroke-width:1;"/><text fill="#000000" font-family="sans-serif" font-size="14" lengthAdjust="spacing" textLength="341.4277" x="784" y="821.6826">&#1087;&#1086;&#1083;&#1091;&#1095;&#1080;&#1090;&#1100;&#1055;&#1088;&#1077;&#1076;&#1087;&#1086;&#1095;&#1090;&#1077;&#1085;&#1080;&#1103;(): Map&lt;String, String&gt;</text></g><!--class ??????????_EcoChef--><g class="entity" data-entity="&#1059;&#1089;&#1090;&#1088;&#1086;&#1081;&#1089;&#1090;&#1074;&#1086;_EcoChef" data-source-line="32" data-uid="ent0006" id="entity_&#1059;&#1089;&#1090;&#1088;&#1086;&#1081;&#1089;&#1090;&#1074;&#1086;_EcoChef"><rect fill="#F1F1F1" height="129.4844" rx="2.5" ry="2.5" style="stroke:#181818;stroke-width:0.5;" width="284.8291" x="787" y="7"/><ellipse cx="851.2134" cy="23" fill="#C2C2C2" rx="11" ry="11" style="stroke:#181818;stroke-width:1;"/><path d="M854.1821,28.6406 Q853.604,28.9375 852.9634,29.0781 Q852.3228,29.2344 851.6196,29.2344 Q849.1196,29.2344 847.7915,27.5938 Q846.479,25.9375 846.479,22.8125 Q846.479,19.6875 847.7915,18.0313 Q849.1196,16.375 851.6196,16.375 Q852.3228,16.375 852.9634,16.5313 Q853.6196,16.6875 854.1821,16.9844 L854.1821,19.7031 Q853.5571,19.125 852.9634,18.8594 Q852.3696,18.5781 851.7446,18.5781 Q850.4009,18.5781 849.7134,19.6563 Q849.0259,20.7188 849.0259,22.8125 Q849.0259,24.9063 849.7134,25.9844 Q850.4009,27.0469 851.7446,27.0469 Q852.3696,27.0469 852.9634,26.7813 Q853.5571,26.5 854.1821,25.9219 L854.1821,28.6406 Z " fill="#000000"/><text fill="#000000" font-family="sans-serif" font-size="14" lengthAdjust="spacing" textLength="147.9023" x="871.7134" y="27.8467">&#1059;&#1089;&#1090;&#1088;&#1086;&#1081;&#1089;&#1090;&#1074;&#1086;_EcoChef</text><line style="stroke:#181818;stroke-width:0.5;" x1="788" x2="1070.8291" y1="39" y2="39"/><rect fill="none" height="6" style="stroke:#595959;stroke-width:1;" width="6" x="795" y="49.6484"/><text fill="#000000" font-family="sans-serif" font-size="14" lengthAdjust="spacing" textLength="258.8291" x="807" y="55.9951">&#1080;&#1076;&#1077;&#1085;&#1090;&#1080;&#1092;&#1080;&#1082;&#1072;&#1090;&#1086;&#1088;_&#1091;&#1089;&#1090;&#1088;&#1086;&#1081;&#1089;&#1090;&#1074;&#1072;: String</text><rect fill="none" height="6" style="stroke:#595959;stroke-width:1;" width="6" x="795" y="65.9453"/><text fill="#000000" font-family="sans-serif" font-size="14" lengthAdjust="spacing" textLength="145.9473" x="807" y="72.292">&#1082;&#1072;&#1084;&#1077;&#1088;&#1072;: &#1048;&#1048;_&#1050;&#1072;&#1084;&#1077;&#1088;&#1072;</text><rect fill="none" height="6" style="stroke:#595959;stroke-width:1;" width="6" x="795" y="82.2422"/><text fill="#000000" font-family="sans-serif" font-size="14" lengthAdjust="spacing" textLength="218.7705" x="807" y="88.5889">&#1089;&#1082;&#1072;&#1085;&#1077;&#1088;: &#1057;&#1082;&#1072;&#1085;&#1077;&#1088;_&#1096;&#1090;&#1088;&#1080;&#1093;_&#1082;&#1086;&#1076;&#1086;&#1074;</text><line style="stroke:#181818;stroke-width:0.5;" x1="788" x2="1070.8291" y1="95.8906" y2="95.8906"/><ellipse cx="798" cy="109.5391" fill="#A6A6A6" rx="3" ry="3" style="stroke:#545454;stroke-width:1;"/><text fill="#000000" font-family="sans-serif" font-size="14" lengthAdjust="spacing" textLength="238.875" x="807" y="112.8857">&#1089;&#1082;&#1072;&#1085;&#1080;&#1088;&#1086;&#1074;&#1072;&#1090;&#1100;&#1055;&#1088;&#1086;&#1076;&#1091;&#1082;&#1090;(): &#1055;&#1088;&#1086;&#1076;&#1091;&#1082;&#1090;</text><ellipse cx="798" cy="125.8359" fill="#A6A6A6" rx="3" ry="3" style="stroke:#545454;stroke-width:1;"/><text fill="#000000" font-family="sans-serif" font-size="14" lengthAdjust="spacing" textLength="229.667" x="807" y="129.1826">&#1088;&#1072;&#1089;&#1087;&#1086;&#1079;&#1085;&#1072;&#1090;&#1100;&#1055;&#1088;&#1086;&#1076;&#1091;&#1082;&#1090;(): &#1055;&#1088;&#1086;&#1076;&#1091;&#1082;&#1090;</text></g><!--class ?????????_??????????--><g class="entity" data-entity="&#1052;&#1086;&#1073;&#1080;&#1083;&#1100;&#1085;&#1086;&#1077;_&#1087;&#1088;&#1080;&#1083;&#1086;&#1078;&#1077;&#1085;&#1080;&#1077;" data-source-line="39" data-uid="ent0007" id="entity_&#1052;&#1086;&#1073;&#1080;&#1083;&#1100;&#1085;&#1086;&#1077;_&#1087;&#1088;&#1080;&#1083;&#1086;&#1078;&#1077;&#1085;&#1080;&#1077;"><rect fill="#F1F1F1" height="178.375" rx="2.5" ry="2.5" style="stroke:#181818;stroke-width:0.5;" width="345.7236" x="756.5" y="213"/><ellipse cx="834.2861" cy="229" fill="#C2C2C2" rx="11" ry="11" style="stroke:#181818;stroke-width:1;"/><path d="M837.2549,234.6406 Q836.6768,234.9375 836.0361,235.0781 Q835.3955,235.2344 834.6924,235.2344 Q832.1924,235.2344 830.8643,233.5938 Q829.5518,231.9375 829.5518,228.8125 Q829.5518,225.6875 830.8643,224.0313 Q832.1924,222.375 834.6924,222.375 Q835.3955,222.375 836.0361,222.5313 Q836.6924,222.6875 837.2549,222.9844 L837.2549,225.7031 Q836.6299,225.125 836.0361,224.8594 Q835.4424,224.5781 834.8174,224.5781 Q833.4736,224.5781 832.7861,225.6563 Q832.0986,226.7188 832.0986,228.8125 Q832.0986,230.9063 832.7861,231.9844 Q833.4736,233.0469 834.8174,233.0469 Q835.4424,233.0469 836.0361,232.7813 Q836.6299,232.5 837.2549,231.9219 L837.2549,234.6406 Z " fill="#000000"/><text fill="#000000" font-family="sans-serif" font-size="14" lengthAdjust="spacing" textLength="181.6514" x="854.7861" y="233.8467">&#1052;&#1086;&#1073;&#1080;&#1083;&#1100;&#1085;&#1086;&#1077;_&#1087;&#1088;&#1080;&#1083;&#1086;&#1078;&#1077;&#1085;&#1080;&#1077;</text><line style="stroke:#181818;stroke-width:0.5;" x1="757.5" x2="1101.2236" y1="245" y2="245"/><rect fill="none" height="6" style="stroke:#595959;stroke-width:1;" width="6" x="764.5" y="255.6484"/><text fill="#000000" font-family="sans-serif" font-size="14" lengthAdjust="spacing" textLength="206.6025" x="776.5" y="261.9951">&#1091;&#1095;&#1105;&#1090;_&#1079;&#1072;&#1087;&#1072;&#1089;&#1086;&#1074;: &#1059;&#1095;&#1105;&#1090;_&#1079;&#1072;&#1087;&#1072;&#1089;&#1086;&#1074;</text><rect fill="none" height="6" style="stroke:#595959;stroke-width:1;" width="6" x="764.5" y="271.9453"/><text fill="#000000" font-family="sans-serif" font-size="14" lengthAdjust="spacing" textLength="173.6123" x="776.5" y="278.292">&#1088;&#1077;&#1094;&#1077;&#1087;&#1090;&#1099;: List&lt;&#1056;&#1077;&#1094;&#1077;&#1087;&#1090;&gt;</text><rect fill="none" height="6" style="stroke:#595959;stroke-width:1;" width="6" x="764.5" y="288.2422"/><text fill="#000000" font-family="sans-serif" font-size="14" lengthAdjust="spacing" textLength="213.9922" x="776.5" y="294.5889">&#1087;&#1086;&#1083;&#1100;&#1079;&#1086;&#1074;&#1072;&#1090;&#1077;&#1083;&#1100;: &#1055;&#1086;&#1083;&#1100;&#1079;&#1086;&#1074;&#1072;&#1090;&#1077;&#1083;&#1100;</text><line style="stroke:#181818;stroke-width:0.5;" x1="757.5" x2="1101.2236" y1="301.8906" y2="301.8906"/><ellipse cx="767.5" cy="315.5391" fill="#A6A6A6" rx="3" ry="3" style="stroke:#545454;stroke-width:1;"/><text fill="#000000" font-family="sans-serif" font-size="14" lengthAdjust="spacing" textLength="266.54" x="776.5" y="318.8857">&#1086;&#1073;&#1085;&#1086;&#1074;&#1080;&#1090;&#1100;&#1047;&#1072;&#1087;&#1072;&#1089;&#1099;(&#1087;&#1088;&#1086;&#1076;&#1091;&#1082;&#1090;: &#1055;&#1088;&#1086;&#1076;&#1091;&#1082;&#1090;)</text><ellipse cx="767.5" cy="331.8359" fill="#A6A6A6" rx="3" ry="3" style="stroke:#545454;stroke-width:1;"/><text fill="#000000" font-family="sans-serif" font-size="14" lengthAdjust="spacing" textLength="203.0205" x="776.5" y="335.1826">&#1087;&#1088;&#1086;&#1074;&#1077;&#1088;&#1080;&#1090;&#1100;&#1057;&#1088;&#1086;&#1082;&#1080;&#1043;&#1086;&#1076;&#1085;&#1086;&#1089;&#1090;&#1080;()</text><ellipse cx="767.5" cy="348.1328" fill="#A6A6A6" rx="3" ry="3" style="stroke:#545454;stroke-width:1;"/><text fill="#000000" font-family="sans-serif" font-size="14" lengthAdjust="spacing" textLength="319.7236" x="776.5" y="351.4795">&#1086;&#1090;&#1087;&#1088;&#1072;&#1074;&#1080;&#1090;&#1100;&#1059;&#1074;&#1077;&#1076;&#1086;&#1084;&#1083;&#1077;&#1085;&#1080;&#1077;(&#1089;&#1086;&#1086;&#1073;&#1097;&#1077;&#1085;&#1080;&#1077;: String)</text><ellipse cx="767.5" cy="364.4297" fill="#A6A6A6" rx="3" ry="3" style="stroke:#545454;stroke-width:1;"/><text fill="#000000" font-family="sans-serif" font-size="14" lengthAdjust="spacing" textLength="276.0557" x="776.5" y="367.7764">&#1087;&#1088;&#1077;&#1076;&#1083;&#1086;&#1078;&#1080;&#1090;&#1100;&#1056;&#1077;&#1094;&#1077;&#1087;&#1090;&#1099;(): List&lt;&#1056;&#1077;&#1094;&#1077;&#1087;&#1090;&gt;</text><ellipse cx="767.5" cy="380.7266" fill="#A6A6A6" rx="3" ry="3" style="stroke:#545454;stroke-width:1;"/><text fill="#000000" font-family="sans-serif" font-size="14" lengthAdjust="spacing" textLength="245.7383" x="776.5" y="384.0732">&#1085;&#1072;&#1095;&#1080;&#1089;&#1083;&#1080;&#1090;&#1100;&#1069;&#1082;&#1086;&#1054;&#1095;&#1082;&#1080;(&#1086;&#1095;&#1082;&#1080;: Integer)</text></g><!--class ???????????--><g class="entity" data-entity="&#1059;&#1074;&#1077;&#1076;&#1086;&#1084;&#1083;&#1077;&#1085;&#1080;&#1077;" data-source-line="49" data-uid="ent0008" id="entity_&#1059;&#1074;&#1077;&#1076;&#1086;&#1084;&#1083;&#1077;&#1085;&#1080;&#1077;"><rect fill="#F1F1F1" height="96.8906" rx="2.5" ry="2.5" style="stroke:#181818;stroke-width:0.5;" width="247.0947" x="983" y="492.5"/><ellipse cx="1052.9829" cy="508.5" fill="#C2C2C2" rx="11" ry="11" style="stroke:#181818;stroke-width:1;"/><path d="M1055.9517,514.1406 Q1055.3735,514.4375 1054.7329,514.5781 Q1054.0923,514.7344 1053.3892,514.7344 Q1050.8892,514.7344 1049.561,513.0938 Q1048.2485,511.4375 1048.2485,508.3125 Q1048.2485,505.1875 1049.561,503.5313 Q1050.8892,501.875 1053.3892,501.875 Q1054.0923,501.875 1054.7329,502.0313 Q1055.3892,502.1875 1055.9517,502.4844 L1055.9517,505.2031 Q1055.3267,504.625 1054.7329,504.3594 Q1054.1392,504.0781 1053.5142,504.0781 Q1052.1704,504.0781 1051.4829,505.1563 Q1050.7954,506.2188 1050.7954,508.3125 Q1050.7954,510.4063 1051.4829,511.4844 Q1052.1704,512.5469 1053.5142,512.5469 Q1054.1392,512.5469 1054.7329,512.2813 Q1055.3267,512 1055.9517,511.4219 L1055.9517,514.1406 Z " fill="#000000"/><text fill="#000000" font-family="sans-serif" font-size="14" lengthAdjust="spacing" textLength="98.6289" x="1073.4829" y="513.3467">&#1059;&#1074;&#1077;&#1076;&#1086;&#1084;&#1083;&#1077;&#1085;&#1080;&#1077;</text><line style="stroke:#181818;stroke-width:0.5;" x1="984" x2="1229.0947" y1="524.5" y2="524.5"/><rect fill="none" height="6" style="stroke:#595959;stroke-width:1;" width="6" x="991" y="535.1484"/><text fill="#000000" font-family="sans-serif" font-size="14" lengthAdjust="spacing" textLength="133.0752" x="1003" y="541.4951">&#1089;&#1086;&#1086;&#1073;&#1097;&#1077;&#1085;&#1080;&#1077;: String</text><rect fill="none" height="6" style="stroke:#595959;stroke-width:1;" width="6" x="991" y="551.4453"/><text fill="#000000" font-family="sans-serif" font-size="14" lengthAdjust="spacing" textLength="87.3633" x="1003" y="557.792">&#1074;&#1088;&#1077;&#1084;&#1103;: Date</text><line style="stroke:#181818;stroke-width:0.5;" x1="984" x2="1229.0947" y1="565.0938" y2="565.0938"/><ellipse cx="994" cy="578.7422" fill="#A6A6A6" rx="3" ry="3" style="stroke:#545454;stroke-width:1;"/><text fill="#000000" font-family="sans-serif" font-size="14" lengthAdjust="spacing" textLength="221.0947" x="1003" y="582.0889">&#1086;&#1090;&#1087;&#1088;&#1072;&#1074;&#1080;&#1090;&#1100;(&#1089;&#1086;&#1086;&#1073;&#1097;&#1077;&#1085;&#1080;&#1077;: String)</text></g><!--class ???????_EcoPoints--><g class="entity" data-entity="&#1057;&#1080;&#1089;&#1090;&#1077;&#1084;&#1072;_EcoPoints" data-source-line="54" data-uid="ent0009" id="entity_&#1057;&#1080;&#1089;&#1090;&#1077;&#1084;&#1072;_EcoPoints"><rect fill="#F1F1F1" height="113.1875" rx="2.5" ry="2.5" style="stroke:#181818;stroke-width:0.5;" width="303.3545" x="1265" y="484.5"/><ellipse cx="1343.856" cy="500.5" fill="#C2C2C2" rx="11" ry="11" style="stroke:#181818;stroke-width:1;"/><path d="M1346.8247,506.1406 Q1346.2466,506.4375 1345.606,506.5781 Q1344.9653,506.7344 1344.2622,506.7344 Q1341.7622,506.7344 1340.4341,505.0938 Q1339.1216,503.4375 1339.1216,500.3125 Q1339.1216,497.1875 1340.4341,495.5313 Q1341.7622,493.875 1344.2622,493.875 Q1344.9653,493.875 1345.606,494.0313 Q1346.2622,494.1875 1346.8247,494.4844 L1346.8247,497.2031 Q1346.1997,496.625 1345.606,496.3594 Q1345.0122,496.0781 1344.3872,496.0781 Q1343.0435,496.0781 1342.356,497.1563 Q1341.6685,498.2188 1341.6685,500.3125 Q1341.6685,502.4063 1342.356,503.4844 Q1343.0435,504.5469 1344.3872,504.5469 Q1345.0122,504.5469 1345.606,504.2813 Q1346.1997,504 1346.8247,503.4219 L1346.8247,506.1406 Z " fill="#000000"/><text fill="#000000" font-family="sans-serif" font-size="14" lengthAdjust="spacing" textLength="137.1426" x="1364.356" y="505.3467">&#1057;&#1080;&#1089;&#1090;&#1077;&#1084;&#1072;_EcoPoints</text><line style="stroke:#181818;stroke-width:0.5;" x1="1266" x2="1567.3545" y1="516.5" y2="516.5"/><rect fill="none" height="6" style="stroke:#595959;stroke-width:1;" width="6" x="1273" y="527.1484"/><text fill="#000000" font-family="sans-serif" font-size="14" lengthAdjust="spacing" textLength="277.3545" x="1285" y="533.4951">&#1080;&#1076;&#1077;&#1085;&#1090;&#1080;&#1092;&#1080;&#1082;&#1072;&#1090;&#1086;&#1088;_&#1087;&#1086;&#1083;&#1100;&#1079;&#1086;&#1074;&#1072;&#1090;&#1077;&#1083;&#1103;: String</text><rect fill="none" height="6" style="stroke:#595959;stroke-width:1;" width="6" x="1273" y="543.4453"/><text fill="#000000" font-family="sans-serif" font-size="14" lengthAdjust="spacing" textLength="93.9189" x="1285" y="549.792">&#1086;&#1095;&#1082;&#1080;: Integer</text><line style="stroke:#181818;stroke-width:0.5;" x1="1266" x2="1567.3545" y1="557.0938" y2="557.0938"/><ellipse cx="1276" cy="570.7422" fill="#A6A6A6" rx="3" ry="3" style="stroke:#545454;stroke-width:1;"/><text fill="#000000" font-family="sans-serif" font-size="14" lengthAdjust="spacing" textLength="218.9414" x="1285" y="574.0889">&#1085;&#1072;&#1095;&#1080;&#1089;&#1083;&#1080;&#1090;&#1100;&#1054;&#1095;&#1082;&#1080;(&#1086;&#1095;&#1082;&#1080;: Integer)</text><ellipse cx="1276" cy="587.0391" fill="#A6A6A6" rx="3" ry="3" style="stroke:#545454;stroke-width:1;"/><text fill="#000000" font-family="sans-serif" font-size="14" lengthAdjust="spacing" textLength="212.0439" x="1285" y="590.3857">&#1086;&#1073;&#1084;&#1077;&#1085;&#1103;&#1090;&#1100;&#1054;&#1095;&#1082;&#1080;(&#1086;&#1095;&#1082;&#1080;: Integer)</text></g><!--link ??????????_EcoChef to ?????????_??????????--><g class="link" data-entity-1="&#1059;&#1089;&#1090;&#1088;&#1086;&#1081;&#1089;&#1090;&#1074;&#1086;_EcoChef" data-entity-2="&#1052;&#1086;&#1073;&#1080;&#1083;&#1100;&#1085;&#1086;&#1077;_&#1087;&#1088;&#1080;&#1083;&#1086;&#1078;&#1077;&#1085;&#1080;&#1077;" data-source-line="61" data-uid="lnk10" id="link_&#1059;&#1089;&#1090;&#1088;&#1086;&#1081;&#1089;&#1090;&#1074;&#1086;_EcoChef_&#1052;&#1086;&#1073;&#1080;&#1083;&#1100;&#1085;&#1086;&#1077;_&#1087;&#1088;&#1080;&#1083;&#1086;&#1078;&#1077;&#1085;&#1080;&#1077;"><path codeLine="61" d="M929.5,136.15 C929.5,159.92 929.5,181.35 929.5,206.93" fill="none" id="&#1059;&#1089;&#1090;&#1088;&#1086;&#1081;&#1089;&#1090;&#1074;&#1086;_EcoChef-to-&#1052;&#1086;&#1073;&#1080;&#1083;&#1100;&#1085;&#1086;&#1077;_&#1087;&#1088;&#1080;&#1083;&#1086;&#1078;&#1077;&#1085;&#1080;&#1077;" style="stroke:#181818;stroke-width:1;"/><polygon fill="#181818" points="929.5,212.93,933.5,203.93,929.5,207.93,925.5,203.93,929.5,212.93" style="stroke:#181818;stroke-width:1;"/><text fill="#000000" font-family="sans-serif" font-size="13" lengthAdjust="spacing" textLength="121.6211" x="930.5" y="179.0669">&#1087;&#1077;&#1088;&#1077;&#1076;&#1072;&#1105;&#1090; &#1076;&#1072;&#1085;&#1085;&#1099;&#1077;</text></g><!--link ?????????_?????????? to ????_???????--><g class="link" data-entity-1="&#1052;&#1086;&#1073;&#1080;&#1083;&#1100;&#1085;&#1086;&#1077;_&#1087;&#1088;&#1080;&#1083;&#1086;&#1078;&#1077;&#1085;&#1080;&#1077;" data-entity-2="&#1059;&#1095;&#1105;&#1090;_&#1079;&#1072;&#1087;&#1072;&#1089;&#1086;&#1074;" data-source-line="62" data-uid="lnk11" id="link_&#1052;&#1086;&#1073;&#1080;&#1083;&#1100;&#1085;&#1086;&#1077;_&#1087;&#1088;&#1080;&#1083;&#1086;&#1078;&#1077;&#1085;&#1080;&#1077;_&#1059;&#1095;&#1105;&#1090;_&#1079;&#1072;&#1087;&#1072;&#1089;&#1086;&#1074;"><path codeLine="62" d="M744.7692,359.7766 C642.4892,391.5166 522.1,429.47 405.5,468 C397.15,470.76 394.3175,471.6888 385.7175,474.5788" fill="none" id="&#1052;&#1086;&#1073;&#1080;&#1083;&#1100;&#1085;&#1086;&#1077;_&#1087;&#1088;&#1080;&#1083;&#1086;&#1078;&#1077;&#1085;&#1080;&#1077;-&#1059;&#1095;&#1105;&#1090;_&#1079;&#1072;&#1087;&#1072;&#1089;&#1086;&#1074;" style="stroke:#181818;stroke-width:1;"/><polygon fill="none" points="756.23,356.22,749.3141,354.178,744.7692,359.7766,751.6851,361.8186,756.23,356.22" style="stroke:#181818;stroke-width:1;"/><polygon fill="#181818" points="380.03,476.49,389.8353,477.4148,384.7695,474.8973,387.287,469.8315,380.03,476.49" style="stroke:#181818;stroke-width:1;"/></g><!--link ?????????_?????????? to ????????????--><g class="link" data-entity-1="&#1052;&#1086;&#1073;&#1080;&#1083;&#1100;&#1085;&#1086;&#1077;_&#1087;&#1088;&#1080;&#1083;&#1086;&#1078;&#1077;&#1085;&#1080;&#1077;" data-entity-2="&#1055;&#1086;&#1083;&#1100;&#1079;&#1086;&#1074;&#1072;&#1090;&#1077;&#1083;&#1100;" data-source-line="63" data-uid="lnk12" id="link_&#1052;&#1086;&#1073;&#1080;&#1083;&#1100;&#1085;&#1086;&#1077;_&#1087;&#1088;&#1080;&#1083;&#1086;&#1078;&#1077;&#1085;&#1080;&#1077;_&#1055;&#1086;&#1083;&#1100;&#1079;&#1086;&#1074;&#1072;&#1090;&#1077;&#1083;&#1100;"><path codeLine="63" d="M936.8132,403.0354 C942.2232,465.6354 950.55,539.53 965.5,614 C971.2,642.38 977.9498,667.4579 985.8898,693.6579" fill="none" id="&#1052;&#1086;&#1073;&#1080;&#1083;&#1100;&#1085;&#1086;&#1077;_&#1087;&#1088;&#1080;&#1083;&#1086;&#1078;&#1077;&#1085;&#1080;&#1077;-&#1055;&#1086;&#1083;&#1100;&#1079;&#1086;&#1074;&#1072;&#1090;&#1077;&#1083;&#1100;" style="stroke:#181818;stroke-width:1;"/><polygon fill="none" points="935.78,391.08,932.3115,397.4021,936.8132,403.0354,940.2818,396.7133,935.78,391.08" style="stroke:#181818;stroke-width:1;"/><polygon fill="#181818" points="987.63,699.4,988.8478,689.6267,986.1799,694.6149,981.1917,691.9469,987.63,699.4" style="stroke:#181818;stroke-width:1;"/></g><!--link ?????????_?????????? to ??????--><g class="link" data-entity-1="&#1052;&#1086;&#1073;&#1080;&#1083;&#1100;&#1085;&#1086;&#1077;_&#1087;&#1088;&#1080;&#1083;&#1086;&#1078;&#1077;&#1085;&#1080;&#1077;" data-entity-2="&#1056;&#1077;&#1094;&#1077;&#1087;&#1090;" data-source-line="64" data-uid="lnk13" id="link_&#1052;&#1086;&#1073;&#1080;&#1083;&#1100;&#1085;&#1086;&#1077;_&#1087;&#1088;&#1080;&#1083;&#1086;&#1078;&#1077;&#1085;&#1080;&#1077;_&#1056;&#1077;&#1094;&#1077;&#1087;&#1090;"><path codeLine="64" d="M825.24,391.25 C795.39,416.52 767.7892,439.8731 739.2292,464.0531" fill="none" id="&#1052;&#1086;&#1073;&#1080;&#1083;&#1100;&#1085;&#1086;&#1077;_&#1087;&#1088;&#1080;&#1083;&#1086;&#1078;&#1077;&#1085;&#1080;&#1077;-to-&#1056;&#1077;&#1094;&#1077;&#1087;&#1090;" style="stroke:#181818;stroke-width:1;"/><polygon fill="#181818" points="734.65,467.93,744.1035,465.1674,738.466,464.6992,738.9342,459.0618,734.65,467.93" style="stroke:#181818;stroke-width:1;"/><text fill="#000000" font-family="sans-serif" font-size="13" lengthAdjust="spacing" textLength="79.5425" x="790.5" y="434.0669">&#1075;&#1077;&#1085;&#1077;&#1088;&#1080;&#1088;&#1091;&#1077;&#1090;</text></g><!--link ?????????_?????????? to ???????????--><g class="link" data-entity-1="&#1052;&#1086;&#1073;&#1080;&#1083;&#1100;&#1085;&#1086;&#1077;_&#1087;&#1088;&#1080;&#1083;&#1086;&#1078;&#1077;&#1085;&#1080;&#1077;" data-entity-2="&#1059;&#1074;&#1077;&#1076;&#1086;&#1084;&#1083;&#1077;&#1085;&#1080;&#1077;" data-source-line="65" data-uid="lnk14" id="link_&#1052;&#1086;&#1073;&#1080;&#1083;&#1100;&#1085;&#1086;&#1077;_&#1087;&#1088;&#1080;&#1083;&#1086;&#1078;&#1077;&#1085;&#1080;&#1077;_&#1059;&#1074;&#1077;&#1076;&#1086;&#1084;&#1083;&#1077;&#1085;&#1080;&#1077;"><path codeLine="65" d="M995.41,391.25 C1020.96,425.47 1045.6198,458.4826 1067.2398,487.4326" fill="none" id="&#1052;&#1086;&#1073;&#1080;&#1083;&#1100;&#1085;&#1086;&#1077;_&#1087;&#1088;&#1080;&#1083;&#1086;&#1078;&#1077;&#1085;&#1080;&#1077;-to-&#1059;&#1074;&#1077;&#1076;&#1086;&#1084;&#1083;&#1077;&#1085;&#1080;&#1077;" style="stroke:#181818;stroke-width:1;"/><polygon fill="#181818" points="1070.83,492.24,1068.6497,482.6355,1067.8382,488.2339,1062.2398,487.4224,1070.83,492.24" style="stroke:#181818;stroke-width:1;"/><text fill="#000000" font-family="sans-serif" font-size="13" lengthAdjust="spacing" textLength="79.606" x="1030.5" y="434.0669">&#1086;&#1090;&#1087;&#1088;&#1072;&#1074;&#1083;&#1103;&#1077;&#1090;</text></g><!--link ?????????_?????????? to ???????_EcoPoints--><g class="link" data-entity-1="&#1052;&#1086;&#1073;&#1080;&#1083;&#1100;&#1085;&#1086;&#1077;_&#1087;&#1088;&#1080;&#1083;&#1086;&#1078;&#1077;&#1085;&#1080;&#1077;" data-entity-2="&#1057;&#1080;&#1089;&#1090;&#1077;&#1084;&#1072;_EcoPoints" data-source-line="66" data-uid="lnk15" id="link_&#1052;&#1086;&#1073;&#1080;&#1083;&#1100;&#1085;&#1086;&#1077;_&#1087;&#1088;&#1080;&#1083;&#1086;&#1078;&#1077;&#1085;&#1080;&#1077;_&#1057;&#1080;&#1089;&#1090;&#1077;&#1084;&#1072;_EcoPoints"><path codeLine="66" d="M1102.57,387.22 C1168.87,419.49 1237.3949,452.8346 1296.8449,481.7646" fill="none" id="&#1052;&#1086;&#1073;&#1080;&#1083;&#1100;&#1085;&#1086;&#1077;_&#1087;&#1088;&#1080;&#1083;&#1086;&#1078;&#1077;&#1085;&#1080;&#1077;-to-&#1057;&#1080;&#1089;&#1090;&#1077;&#1084;&#1072;_EcoPoints" style="stroke:#181818;stroke-width:1;"/><polygon fill="#181818" points="1302.24,484.39,1295.8976,476.8551,1297.7441,482.2022,1292.3971,484.0486,1302.24,484.39" style="stroke:#181818;stroke-width:1;"/><text fill="#000000" font-family="sans-serif" font-size="13" lengthAdjust="spacing" textLength="71.4429" x="1202.5" y="434.0669">&#1085;&#1072;&#1095;&#1080;&#1089;&#1083;&#1103;&#1077;&#1090;</text></g><!--link ????_??????? to ???????--><g class="link" data-entity-1="&#1059;&#1095;&#1105;&#1090;_&#1079;&#1072;&#1087;&#1072;&#1089;&#1086;&#1074;" data-entity-2="&#1055;&#1088;&#1086;&#1076;&#1091;&#1082;&#1090;" data-source-line="67" data-uid="lnk16" id="link_&#1059;&#1095;&#1105;&#1090;_&#1079;&#1072;&#1087;&#1072;&#1089;&#1086;&#1074;_&#1055;&#1088;&#1086;&#1076;&#1091;&#1082;&#1090;"><path codeLine="67" d="M285.1234,613.1971 C317.9234,639.8471 342.2537,659.606 376.0937,687.106" fill="none" id="&#1059;&#1095;&#1105;&#1090;_&#1079;&#1072;&#1087;&#1072;&#1089;&#1086;&#1074;-&#1055;&#1088;&#1086;&#1076;&#1091;&#1082;&#1090;" style="stroke:#181818;stroke-width:1;"/><polygon fill="none" points="275.81,605.63,277.9443,612.518,285.1234,613.1971,282.9891,606.3091,275.81,605.63" style="stroke:#181818;stroke-width:1;"/><polygon fill="#181818" points="380.75,690.89,376.2881,682.1098,376.8697,687.7367,371.2428,688.3183,380.75,690.89" style="stroke:#181818;stroke-width:1;"/><text fill="#000000" font-family="sans-serif" font-size="13" lengthAdjust="spacing" textLength="68.0723" x="343.5" y="657.0669">&#1089;&#1086;&#1076;&#1077;&#1088;&#1078;&#1080;&#1090;</text></g><!--link ?????? to ???????--><g class="link" data-entity-1="&#1056;&#1077;&#1094;&#1077;&#1087;&#1090;" data-entity-2="&#1055;&#1088;&#1086;&#1076;&#1091;&#1082;&#1090;" data-source-line="68" data-uid="lnk17" id="link_&#1056;&#1077;&#1094;&#1077;&#1087;&#1090;_&#1055;&#1088;&#1086;&#1076;&#1091;&#1082;&#1090;"><path codeLine="68" d="M590.81,614.06 C570.8,638.62 552.2291,661.4278 532.2091,686.0078" fill="none" id="&#1056;&#1077;&#1094;&#1077;&#1087;&#1090;-to-&#1055;&#1088;&#1086;&#1076;&#1091;&#1082;&#1090;" style="stroke:#181818;stroke-width:1;"/><polygon fill="#181818" points="528.42,690.66,537.2051,686.2078,531.5776,686.7832,531.0022,681.1557,528.42,690.66" style="stroke:#181818;stroke-width:1;"/><text fill="#000000" font-family="sans-serif" font-size="13" lengthAdjust="spacing" textLength="78.1968" x="566.5" y="657.0669">&#1080;&#1089;&#1087;&#1086;&#1083;&#1100;&#1079;&#1091;&#1077;&#1090;</text></g><!--link ???????_EcoPoints to ????????????--><g class="link" data-entity-1="&#1057;&#1080;&#1089;&#1090;&#1077;&#1084;&#1072;_EcoPoints" data-entity-2="&#1055;&#1086;&#1083;&#1100;&#1079;&#1086;&#1074;&#1072;&#1090;&#1077;&#1083;&#1100;" data-source-line="69" data-uid="lnk18" id="link_&#1057;&#1080;&#1089;&#1090;&#1077;&#1084;&#1072;_EcoPoints_&#1055;&#1086;&#1083;&#1100;&#1079;&#1086;&#1074;&#1072;&#1090;&#1077;&#1083;&#1100;"><path codeLine="69" d="M1313.81,597.62 C1256.68,628.57 1190.626,664.3528 1131.276,696.4928" fill="none" id="&#1057;&#1080;&#1089;&#1090;&#1077;&#1084;&#1072;_EcoPoints-to-&#1055;&#1086;&#1083;&#1100;&#1079;&#1086;&#1074;&#1072;&#1090;&#1077;&#1083;&#1100;" style="stroke:#181818;stroke-width:1;"/><polygon fill="#181818" points="1126,699.35,1135.8188,698.5816,1130.3967,696.969,1132.0093,691.5469,1126,699.35" style="stroke:#181818;stroke-width:1;"/><text fill="#000000" font-family="sans-serif" font-size="13" lengthAdjust="spacing" textLength="107.5103" x="1225.5" y="657.0669">&#1085;&#1072;&#1095;&#1080;&#1089;&#1083;&#1103;&#1077;&#1090; &#1086;&#1095;&#1082;&#1080;</text></g><!--SRC=[hLRTQXD15BxVfzWxDzI-m59weru82e8Fi8GIsw1DIXAlf92asYej556mY1XBhuKrpRPZcfzNc7aZltDcTxEJpgI9z2PaPixvvfplVEVCDbzNQtlbHddNtwtNwbixZVfknMyrtbQyhJVbPjENFTMM4pbG1tAekluxRzsNGWva8iUgAuLwZzLGnlW_KUtGVzbgL6lRP3IMiRoMVVoEOP8KZbI78OUHl2Had4-m1R3GVrnkLSXvY8CRe1_9X8_wSXBwJskjodQbuQtvSahdwW3dGdNLYJpNYFAB2HYKKiWr7yQqHT5C0AVTlj- -9bXuTydRptYvK4Vgi-f6I396FB7g4B0cQ5haJ1s7_hDgixLXKhb9UGom_WF_B2338Z1nmhbQb3WhGCGSxl-ufnPzPDgUOrBOk7IbCL-Ehze95bF8v1XYwPcCEC5oUdyXfaCuJkz9T5YEvIKkIu0ZD9ApCjgSKsZptY7M8aUpP7ncGrz06THoIMOfyxeACKCLCW-MKnAkANhDIEnnb2UW98M70TOh42haI9qMDwPfaY003T3b70IPF2_lRMYpXwdvfgljUdQCO2NmagqCBkIIFRv2CtEjWVOtw_deoLRzqKxbrHraHJf3mpSk4WPBEU8oOniwEOimTl8j7eTimrA0nVbi5QcFZ2pKXuZ74esBlbQFDZALOxP_QRxZoR7DWufekwPcMSejP-a7Jol1ag9w9X5N31jON6coPSA4KKqiup5qpKroQSyaF5DwGTVSbrExf4Eds4ac57PHWD-ogz6Zzpqb-Jxy9QVPOByWTwxV26obJ0MSEu9JdxAjJ3dvlUIawHNpqw4uO0oQrdWGSbDqyhVXDole9tOHTa3zGN-iBvijLbrLPxnKcZw7o_CYVNHl4x4mvJo2SugS2pYICJNYYtgrrchUrOeESHZpQpvlEraBQ4hbDE8OJk-otlSUK3fzTOgWXCzkLoGk6WmtBC4EJmFXBHn2w-kRI_TVI5sIfDg9gTby_aeOwxVOMnQdpfSw-dKr45TlBel28CLF0kHel9_erWIZQYKykyv3KxMGp-h8Bls6XjOoPCUNPCgSyVaTwXOSSDey4Zo35giBtvQtHiQKAyP5zR8caFVKFm00]--></g></svg>