<svg xmlns="http://www.w3.org/2000/svg" xmlns:xlink="http://www.w3.org/1999/xlink" contentStyleType="text/css" data-diagram-type="ACTIVITY" height="607px" preserveAspectRatio="none" style="width:249px;height:607px;background:#FFFFFF;" version="1.1" viewBox="0 0 249 607" width="249px" zoomAndPan="magnify"><defs/><g><ellipse cx="124.7139" cy="20" fill="#222222" rx="10" ry="10" style="stroke:#222222;stroke-width:1;"/><rect fill="#F1F1F1" height="33.9688" rx="12.5" ry="12.5" style="stroke:#181818;stroke-width:0.5;" width="174.6465" x="37.3906" y="50"/><text fill="#000000" font-family="sans-serif" font-size="12" lengthAdjust="spacing" textLength="154.6465" x="47.3906" y="71.1387">&#1057;&#1082;&#1072;&#1085;&#1080;&#1088;&#1086;&#1074;&#1072;&#1085;&#1080;&#1077; &#1087;&#1088;&#1086;&#1076;&#1091;&#1082;&#1090;&#1072;</text><rect fill="#F1F1F1" height="33.9688" rx="12.5" ry="12.5" style="stroke:#181818;stroke-width:0.5;" width="227.4277" x="11" y="103.9688"/><text fill="#000000" font-family="sans-serif" font-size="12" lengthAdjust="spacing" textLength="207.4277" x="21" y="125.1074">&#1055;&#1077;&#1088;&#1077;&#1076;&#1072;&#1095;&#1072; &#1076;&#1072;&#1085;&#1085;&#1099;&#1093; &#1074; &#1087;&#1088;&#1080;&#1083;&#1086;&#1078;&#1077;&#1085;&#1080;&#1077;</text><rect fill="#F1F1F1" height="33.9688" rx="12.5" ry="12.5" style="stroke:#181818;stroke-width:0.5;" width="190.6777" x="29.375" y="157.9375"/><text fill="#000000" font-family="sans-serif" font-size="12" lengthAdjust="spacing" textLength="170.6777" x="39.375" y="179.0762">&#1054;&#1073;&#1085;&#1086;&#1074;&#1083;&#1077;&#1085;&#1080;&#1077; &#1091;&#1095;&#1105;&#1090;&#1072; &#1079;&#1072;&#1087;&#1072;&#1089;&#1086;&#1074;</text><rect fill="#F1F1F1" height="33.9688" rx="12.5" ry="12.5" style="stroke:#181818;stroke-width:0.5;" width="168.9043" x="40.2617" y="260.3086"/><text fill="#000000" font-family="sans-serif" font-size="12" lengthAdjust="spacing" textLength="148.9043" x="50.2617" y="281.4473">&#1054;&#1090;&#1087;&#1088;&#1072;&#1074;&#1082;&#1072; &#1091;&#1074;&#1077;&#1076;&#1086;&#1084;&#1083;&#1077;&#1085;&#1080;&#1103;</text><polygon fill="#F1F1F1" points="57.3657,211.9063,192.062,211.9063,204.062,223.9063,192.062,235.9063,57.3657,235.9063,45.3657,223.9063,57.3657,211.9063" style="stroke:#181818;stroke-width:0.5;"/><text fill="#000000" font-family="sans-serif" font-size="11" lengthAdjust="spacing" textLength="14.3462" x="128.7139" y="246.1167">&#1076;&#1072;</text><text fill="#000000" font-family="sans-serif" font-size="11" lengthAdjust="spacing" textLength="134.6963" x="57.3657" y="227.7144">&#1057;&#1088;&#1086;&#1082; &#1075;&#1086;&#1076;&#1085;&#1086;&#1089;&#1090;&#1080; &#1073;&#1083;&#1080;&#1079;&#1086;&#1082;?</text><polygon fill="#F1F1F1" points="124.7139,314.2773,136.7139,326.2773,124.7139,338.2773,112.7139,326.2773,124.7139,314.2773" style="stroke:#181818;stroke-width:0.5;"/><rect fill="#F1F1F1" height="33.9688" rx="12.5" ry="12.5" style="stroke:#181818;stroke-width:0.5;" width="119.0176" x="65.2051" y="358.2773"/><text fill="#000000" font-family="sans-serif" font-size="12" lengthAdjust="spacing" textLength="99.0176" x="75.2051" y="379.416">&#1040;&#1085;&#1072;&#1083;&#1080;&#1079; &#1079;&#1072;&#1087;&#1072;&#1089;&#1086;&#1074;</text><rect fill="#F1F1F1" height="33.9688" rx="12.5" ry="12.5" style="stroke:#181818;stroke-width:0.5;" width="172.168" x="38.6299" y="412.2461"/><text fill="#000000" font-family="sans-serif" font-size="12" lengthAdjust="spacing" textLength="152.168" x="48.6299" y="433.3848">&#1055;&#1088;&#1077;&#1076;&#1083;&#1086;&#1078;&#1077;&#1085;&#1080;&#1077; &#1088;&#1077;&#1094;&#1077;&#1087;&#1090;&#1086;&#1074;</text><rect fill="#F1F1F1" height="33.9688" rx="12.5" ry="12.5" style="stroke:#181818;stroke-width:0.5;" width="116.6211" x="66.4033" y="466.2148"/><text fill="#000000" font-family="sans-serif" font-size="12" lengthAdjust="spacing" textLength="96.6211" x="76.4033" y="487.3535">&#1042;&#1099;&#1073;&#1086;&#1088; &#1088;&#1077;&#1094;&#1077;&#1087;&#1090;&#1072;</text><rect fill="#F1F1F1" height="33.9688" rx="12.5" ry="12.5" style="stroke:#181818;stroke-width:0.5;" width="150.9453" x="49.2412" y="520.1836"/><text fill="#000000" font-family="sans-serif" font-size="12" lengthAdjust="spacing" textLength="130.9453" x="59.2412" y="541.3223">&#1054;&#1073;&#1085;&#1086;&#1074;&#1083;&#1077;&#1085;&#1080;&#1077; &#1079;&#1072;&#1087;&#1072;&#1089;&#1086;&#1074;</text><ellipse cx="124.7139" cy="585.1523" fill="none" rx="11" ry="11" style="stroke:#222222;stroke-width:1;"/><ellipse cx="124.7139" cy="585.1523" fill="#222222" rx="6" ry="6" style="stroke:#222222;stroke-width:1;"/><line style="stroke:#181818;stroke-width:1;" x1="124.7139" x2="124.7139" y1="30" y2="50"/><polygon fill="#181818" points="120.7139,40,124.7139,50,128.7139,40,124.7139,44" style="stroke:#181818;stroke-width:1;"/><line style="stroke:#181818;stroke-width:1;" x1="124.7139" x2="124.7139" y1="83.9688" y2="103.9688"/><polygon fill="#181818" points="120.7139,93.9688,124.7139,103.9688,128.7139,93.9688,124.7139,97.9688" style="stroke:#181818;stroke-width:1;"/><line style="stroke:#181818;stroke-width:1;" x1="124.7139" x2="124.7139" y1="137.9375" y2="157.9375"/><polygon fill="#181818" points="120.7139,147.9375,124.7139,157.9375,128.7139,147.9375,124.7139,151.9375" style="stroke:#181818;stroke-width:1;"/><line style="stroke:#181818;stroke-width:1;" x1="124.7139" x2="124.7139" y1="235.9063" y2="260.3086"/><polygon fill="#181818" points="120.7139,250.3086,124.7139,260.3086,128.7139,250.3086,124.7139,254.3086" style="stroke:#181818;stroke-width:1;"/><line style="stroke:#181818;stroke-width:1;" x1="204.062" x2="219.166" y1="223.9063" y2="223.9063"/><polygon fill="#181818" points="215.166,267.293,219.166,277.293,223.166,267.293,219.166,271.293" style="stroke:#181818;stroke-width:1;"/><line style="stroke:#181818;stroke-width:1;" x1="219.166" x2="219.166" y1="223.9063" y2="326.2773"/><line style="stroke:#181818;stroke-width:1;" x1="219.166" x2="136.7139" y1="326.2773" y2="326.2773"/><polygon fill="#181818" points="146.7139,322.2773,136.7139,326.2773,146.7139,330.2773,142.7139,326.2773" style="stroke:#181818;stroke-width:1;"/><line style="stroke:#181818;stroke-width:1;" x1="124.7139" x2="124.7139" y1="294.2773" y2="314.2773"/><polygon fill="#181818" points="120.7139,304.2773,124.7139,314.2773,128.7139,304.2773,124.7139,308.2773" style="stroke:#181818;stroke-width:1;"/><line style="stroke:#181818;stroke-width:1;" x1="124.7139" x2="124.7139" y1="191.9063" y2="211.9063"/><polygon fill="#181818" points="120.7139,201.9063,124.7139,211.9063,128.7139,201.9063,124.7139,205.9063" style="stroke:#181818;stroke-width:1;"/><line style="stroke:#181818;stroke-width:1;" x1="124.7139" x2="124.7139" y1="338.2773" y2="358.2773"/><polygon fill="#181818" points="120.7139,348.2773,124.7139,358.2773,128.7139,348.2773,124.7139,352.2773" style="stroke:#181818;stroke-width:1;"/><line style="stroke:#181818;stroke-width:1;" x1="124.7139" x2="124.7139" y1="392.2461" y2="412.2461"/><polygon fill="#181818" points="120.7139,402.2461,124.7139,412.2461,128.7139,402.2461,124.7139,406.2461" style="stroke:#181818;stroke-width:1;"/><line style="stroke:#181818;stroke-width:1;" x1="124.7139" x2="124.7139" y1="446.2148" y2="466.2148"/><polygon fill="#181818" points="120.7139,456.2148,124.7139,466.2148,128.7139,456.2148,124.7139,460.2148" style="stroke:#181818;stroke-width:1;"/><line style="stroke:#181818;stroke-width:1;" x1="124.7139" x2="124.7139" y1="500.1836" y2="520.1836"/><polygon fill="#181818" points="120.7139,510.1836,124.7139,520.1836,128.7139,510.1836,124.7139,514.1836" style="stroke:#181818;stroke-width:1;"/><line style="stroke:#181818;stroke-width:1;" x1="124.7139" x2="124.7139" y1="554.1523" y2="574.1523"/><polygon fill="#181818" points="120.7139,564.1523,124.7139,574.1523,128.7139,564.1523,124.7139,568.1523" style="stroke:#181818;stroke-width:1;"/><!--SRC=[TKzDRe9W4DrpYbdMAvH5pq8iHj801kXUQreNBlfpW1flyDLA9L3X2czkr3UW2zjqD_FcpVl9xw9a5cH1B76QfEDfbiQX5DbzwEL5a1NUDRQeuN14fNEqs0qpIa7N0tjTejO7E9_S3Kg29VPmke8J6qW_wbeV1RlXfqB3lo_IUY7xUyS75rDlph3eKbVwQig20sKwQYwCutlHHAwmxUrhmQUbi7TTa5q9jHeg7EnwCv9Y6YQaCyd8d4Yn48vUx4KN3XQunVVPN9zzBqnkemdvBmJSeFSd1lkUsbuK4WFrYMj7inFpJTVCrUhyykh-Q__RAo_IsGy0]--></g></svg>