<svg xmlns="http://www.w3.org/2000/svg" xmlns:xlink="http://www.w3.org/1999/xlink" contentStyleType="text/css" data-diagram-type="TIMING" height="208px" preserveAspectRatio="none" style="width:2862px;height:208px;background:#FFFFFF;" version="1.1" viewBox="0 0 2862 208" width="2862px" zoomAndPan="magnify"><defs/><g><line style="stroke:#333333;stroke-width:0.5;" x1="10" x2="10" y1="10" y2="178.8906"/><line style="stroke:#333333;stroke-width:0.5;" x1="2820" x2="2820" y1="10" y2="178.8906"/><line style="stroke:#333333;stroke-width:0.5;stroke-dasharray:3.0,5.0;" x1="15" x2="15" y1="10" y2="178.8906"/><line style="stroke:#333333;stroke-width:0.5;stroke-dasharray:3.0,5.0;" x1="65" x2="65" y1="10" y2="178.8906"/><line style="stroke:#333333;stroke-width:0.5;stroke-dasharray:3.0,5.0;" x1="115" x2="115" y1="10" y2="178.8906"/><line style="stroke:#333333;stroke-width:0.5;stroke-dasharray:3.0,5.0;" x1="165" x2="165" y1="10" y2="178.8906"/><line style="stroke:#333333;stroke-width:0.5;stroke-dasharray:3.0,5.0;" x1="215" x2="215" y1="10" y2="178.8906"/><line style="stroke:#333333;stroke-width:0.5;stroke-dasharray:3.0,5.0;" x1="265" x2="265" y1="10" y2="178.8906"/><line style="stroke:#333333;stroke-width:0.5;stroke-dasharray:3.0,5.0;" x1="315" x2="315" y1="10" y2="178.8906"/><line style="stroke:#333333;stroke-width:0.5;stroke-dasharray:3.0,5.0;" x1="365" x2="365" y1="10" y2="178.8906"/><line style="stroke:#333333;stroke-width:0.5;stroke-dasharray:3.0,5.0;" x1="415" x2="415" y1="10" y2="178.8906"/><line style="stroke:#333333;stroke-width:0.5;stroke-dasharray:3.0,5.0;" x1="465" x2="465" y1="10" y2="178.8906"/><line style="stroke:#333333;stroke-width:0.5;stroke-dasharray:3.0,5.0;" x1="515" x2="515" y1="10" y2="178.8906"/><line style="stroke:#333333;stroke-width:0.5;stroke-dasharray:3.0,5.0;" x1="565" x2="565" y1="10" y2="178.8906"/><line style="stroke:#333333;stroke-width:0.5;stroke-dasharray:3.0,5.0;" x1="615" x2="615" y1="10" y2="178.8906"/><line style="stroke:#333333;stroke-width:0.5;stroke-dasharray:3.0,5.0;" x1="665" x2="665" y1="10" y2="178.8906"/><line style="stroke:#333333;stroke-width:0.5;stroke-dasharray:3.0,5.0;" x1="715" x2="715" y1="10" y2="178.8906"/><line style="stroke:#333333;stroke-width:0.5;stroke-dasharray:3.0,5.0;" x1="765" x2="765" y1="10" y2="178.8906"/><line style="stroke:#333333;stroke-width:0.5;stroke-dasharray:3.0,5.0;" x1="815" x2="815" y1="10" y2="178.8906"/><line style="stroke:#333333;stroke-width:0.5;stroke-dasharray:3.0,5.0;" x1="865" x2="865" y1="10" y2="178.8906"/><line style="stroke:#333333;stroke-width:0.5;stroke-dasharray:3.0,5.0;" x1="915" x2="915" y1="10" y2="178.8906"/><line style="stroke:#333333;stroke-width:0.5;stroke-dasharray:3.0,5.0;" x1="965" x2="965" y1="10" y2="178.8906"/><line style="stroke:#333333;stroke-width:0.5;stroke-dasharray:3.0,5.0;" x1="1015" x2="1015" y1="10" y2="178.8906"/><line style="stroke:#333333;stroke-width:0.5;stroke-dasharray:3.0,5.0;" x1="1065" x2="1065" y1="10" y2="178.8906"/><line style="stroke:#333333;stroke-width:0.5;stroke-dasharray:3.0,5.0;" x1="1115" x2="1115" y1="10" y2="178.8906"/><line style="stroke:#333333;stroke-width:0.5;stroke-dasharray:3.0,5.0;" x1="1165" x2="1165" y1="10" y2="178.8906"/><line style="stroke:#333333;stroke-width:0.5;stroke-dasharray:3.0,5.0;" x1="1215" x2="1215" y1="10" y2="178.8906"/><line style="stroke:#333333;stroke-width:0.5;stroke-dasharray:3.0,5.0;" x1="1265" x2="1265" y1="10" y2="178.8906"/><line style="stroke:#333333;stroke-width:0.5;stroke-dasharray:3.0,5.0;" x1="1315" x2="1315" y1="10" y2="178.8906"/><line style="stroke:#333333;stroke-width:0.5;stroke-dasharray:3.0,5.0;" x1="1365" x2="1365" y1="10" y2="178.8906"/><line style="stroke:#333333;stroke-width:0.5;stroke-dasharray:3.0,5.0;" x1="1415" x2="1415" y1="10" y2="178.8906"/><line style="stroke:#333333;stroke-width:0.5;stroke-dasharray:3.0,5.0;" x1="1465" x2="1465" y1="10" y2="178.8906"/><line style="stroke:#333333;stroke-width:0.5;stroke-dasharray:3.0,5.0;" x1="1515" x2="1515" y1="10" y2="178.8906"/><line style="stroke:#333333;stroke-width:0.5;stroke-dasharray:3.0,5.0;" x1="1565" x2="1565" y1="10" y2="178.8906"/><line style="stroke:#333333;stroke-width:0.5;stroke-dasharray:3.0,5.0;" x1="1615" x2="1615" y1="10" y2="178.8906"/><line style="stroke:#333333;stroke-width:0.5;stroke-dasharray:3.0,5.0;" x1="1665" x2="1665" y1="10" y2="178.8906"/><line style="stroke:#333333;stroke-width:0.5;stroke-dasharray:3.0,5.0;" x1="1715" x2="1715" y1="10" y2="178.8906"/><line style="stroke:#333333;stroke-width:0.5;stroke-dasharray:3.0,5.0;" x1="1765" x2="1765" y1="10" y2="178.8906"/><line style="stroke:#333333;stroke-width:0.5;stroke-dasharray:3.0,5.0;" x1="1815" x2="1815" y1="10" y2="178.8906"/><line style="stroke:#333333;stroke-width:0.5;stroke-dasharray:3.0,5.0;" x1="1865" x2="1865" y1="10" y2="178.8906"/><line style="stroke:#333333;stroke-width:0.5;stroke-dasharray:3.0,5.0;" x1="1915" x2="1915" y1="10" y2="178.8906"/><line style="stroke:#333333;stroke-width:0.5;stroke-dasharray:3.0,5.0;" x1="1965" x2="1965" y1="10" y2="178.8906"/><line style="stroke:#333333;stroke-width:0.5;stroke-dasharray:3.0,5.0;" x1="2015" x2="2015" y1="10" y2="178.8906"/><line style="stroke:#333333;stroke-width:0.5;stroke-dasharray:3.0,5.0;" x1="2065" x2="2065" y1="10" y2="178.8906"/><line style="stroke:#333333;stroke-width:0.5;stroke-dasharray:3.0,5.0;" x1="2115" x2="2115" y1="10" y2="178.8906"/><line style="stroke:#333333;stroke-width:0.5;stroke-dasharray:3.0,5.0;" x1="2165" x2="2165" y1="10" y2="178.8906"/><line style="stroke:#333333;stroke-width:0.5;stroke-dasharray:3.0,5.0;" x1="2215" x2="2215" y1="10" y2="178.8906"/><line style="stroke:#333333;stroke-width:0.5;stroke-dasharray:3.0,5.0;" x1="2265" x2="2265" y1="10" y2="178.8906"/><line style="stroke:#333333;stroke-width:0.5;stroke-dasharray:3.0,5.0;" x1="2315" x2="2315" y1="10" y2="178.8906"/><line style="stroke:#333333;stroke-width:0.5;stroke-dasharray:3.0,5.0;" x1="2365" x2="2365" y1="10" y2="178.8906"/><line style="stroke:#333333;stroke-width:0.5;stroke-dasharray:3.0,5.0;" x1="2415" x2="2415" y1="10" y2="178.8906"/><line style="stroke:#333333;stroke-width:0.5;stroke-dasharray:3.0,5.0;" x1="2465" x2="2465" y1="10" y2="178.8906"/><line style="stroke:#333333;stroke-width:0.5;stroke-dasharray:3.0,5.0;" x1="2515" x2="2515" y1="10" y2="178.8906"/><line style="stroke:#333333;stroke-width:0.5;stroke-dasharray:3.0,5.0;" x1="2565" x2="2565" y1="10" y2="178.8906"/><line style="stroke:#333333;stroke-width:0.5;stroke-dasharray:3.0,5.0;" x1="2615" x2="2615" y1="10" y2="178.8906"/><line style="stroke:#333333;stroke-width:0.5;stroke-dasharray:3.0,5.0;" x1="2665" x2="2665" y1="10" y2="178.8906"/><line style="stroke:#333333;stroke-width:0.5;stroke-dasharray:3.0,5.0;" x1="2715" x2="2715" y1="10" y2="178.8906"/><line style="stroke:#333333;stroke-width:0.5;stroke-dasharray:3.0,5.0;" x1="2765" x2="2765" y1="10" y2="178.8906"/><line style="stroke:#333333;stroke-width:0.5;stroke-dasharray:3.0,5.0;" x1="2815" x2="2815" y1="10" y2="178.8906"/><line style="stroke:#333333;stroke-width:0.5;" x1="10" x2="2820" y1="10" y2="10"/><text fill="#333333" font-family="sans-serif" font-size="14" font-weight="bold" lengthAdjust="spacing" textLength="113.2168" x="15" y="22.9951">&#1055;&#1086;&#1083;&#1100;&#1079;&#1086;&#1074;&#1072;&#1090;&#1077;&#1083;&#1100;</text><line style="stroke:#333333;stroke-width:0.5;" x1="10" x2="129.2168" y1="27.2969" y2="27.2969"/><line style="stroke:#333333;stroke-width:0.5;" x1="129.2168" x2="139.2168" y1="27.2969" y2="10"/><polygon fill="#E3E3E3" points="27,32.2969,753,32.2969,765,44.2969,753,56.2969,27,56.2969,15,44.2969" style="stroke:#3A3A3A;stroke-width:1.5;"/><polygon fill="#E3E3E3" points="777,32.2969,1403,32.2969,1415,44.2969,1403,56.2969,777,56.2969,765,44.2969" style="stroke:#3A3A3A;stroke-width:1.5;"/><polygon fill="#E3E3E3" points="1427,32.2969,2753,32.2969,2765,44.2969,2753,56.2969,1427,56.2969,1415,44.2969" style="stroke:#3A3A3A;stroke-width:1.5;"/><polygon fill="#E3E3E3" points="2777,32.2969,2815,32.2969,2815,56.2969,2777,56.2969,2765,44.2969" style="stroke:#E3E3E3;stroke-width:1.5;"/><path d="M2815,32.2969 L2777,32.2969 L2765,44.2969 L2777,56.2969 L2815,56.2969" fill="#E3E3E3" style="stroke:#3A3A3A;stroke-width:1.5;"/><text fill="#333333" font-family="sans-serif" font-size="12" font-weight="bold" lengthAdjust="spacing" textLength="73.1777" x="353.4111" y="48.4512">&#1054;&#1078;&#1080;&#1076;&#1072;&#1085;&#1080;&#1077;</text><text fill="#333333" font-family="sans-serif" font-size="12" font-weight="bold" lengthAdjust="spacing" textLength="172.9219" x="1003.5391" y="48.4512">&#1055;&#1086;&#1083;&#1091;&#1095;&#1077;&#1085;&#1080;&#1077; &#1091;&#1074;&#1077;&#1076;&#1086;&#1084;&#1083;&#1077;&#1085;&#1080;&#1103;</text><text fill="#333333" font-family="sans-serif" font-size="12" font-weight="bold" lengthAdjust="spacing" textLength="136.6113" x="2021.6943" y="48.4512">&#1055;&#1088;&#1086;&#1089;&#1084;&#1086;&#1090;&#1088; &#1088;&#1077;&#1094;&#1077;&#1087;&#1090;&#1086;&#1074;</text><text fill="#333333" font-family="sans-serif" font-size="12" font-weight="bold" lengthAdjust="spacing" textLength="73.1777" x="2777" y="48.4512">&#1054;&#1078;&#1080;&#1076;&#1072;&#1085;&#1080;&#1077;</text><line style="stroke:#333333;stroke-width:0.5;" x1="10" x2="2820" y1="66.2969" y2="66.2969"/><text fill="#333333" font-family="sans-serif" font-size="14" font-weight="bold" lengthAdjust="spacing" textLength="159.7285" x="15" y="79.292">&#1059;&#1089;&#1090;&#1088;&#1086;&#1081;&#1089;&#1090;&#1074;&#1086; EcoChef</text><line style="stroke:#333333;stroke-width:0.5;" x1="10" x2="175.7285" y1="83.5938" y2="83.5938"/><line style="stroke:#333333;stroke-width:0.5;" x1="175.7285" x2="185.7285" y1="83.5938" y2="66.2969"/><polygon fill="#E3E3E3" points="27,88.5938,53,88.5938,65,100.5938,53,112.5938,27,112.5938,15,100.5938" style="stroke:#3A3A3A;stroke-width:1.5;"/><polygon fill="#E3E3E3" points="77,88.5938,2753,88.5938,2765,100.5938,2753,112.5938,77,112.5938,65,100.5938" style="stroke:#3A3A3A;stroke-width:1.5;"/><polygon fill="#E3E3E3" points="2777,88.5938,2815,88.5938,2815,112.5938,2777,112.5938,2765,100.5938" style="stroke:#E3E3E3;stroke-width:1.5;"/><path d="M2815,88.5938 L2777,88.5938 L2765,100.5938 L2777,112.5938 L2815,112.5938" fill="#E3E3E3" style="stroke:#3A3A3A;stroke-width:1.5;"/><text fill="#333333" font-family="sans-serif" font-size="12" font-weight="bold" lengthAdjust="spacing" textLength="46.9277" x="16.5361" y="104.748">&#1043;&#1086;&#1090;&#1086;&#1074;&#1086;</text><text fill="#333333" font-family="sans-serif" font-size="12" font-weight="bold" lengthAdjust="spacing" textLength="99.1113" x="1365.4443" y="104.748">&#1057;&#1082;&#1072;&#1085;&#1080;&#1088;&#1086;&#1074;&#1072;&#1085;&#1080;&#1077;</text><text fill="#333333" font-family="sans-serif" font-size="12" font-weight="bold" lengthAdjust="spacing" textLength="46.9277" x="2777" y="104.748">&#1043;&#1086;&#1090;&#1086;&#1074;&#1086;</text><line style="stroke:#333333;stroke-width:0.5;" x1="10" x2="2820" y1="122.5938" y2="122.5938"/><text fill="#333333" font-family="sans-serif" font-size="14" font-weight="bold" lengthAdjust="spacing" textLength="197.6816" x="15" y="135.5889">&#1052;&#1086;&#1073;&#1080;&#1083;&#1100;&#1085;&#1086;&#1077; &#1087;&#1088;&#1080;&#1083;&#1086;&#1078;&#1077;&#1085;&#1080;&#1077;</text><line style="stroke:#333333;stroke-width:0.5;" x1="10" x2="213.6816" y1="139.8906" y2="139.8906"/><line style="stroke:#333333;stroke-width:0.5;" x1="213.6816" x2="223.6816" y1="139.8906" y2="122.5938"/><polygon fill="#E3E3E3" points="27,144.8906,153,144.8906,165,156.8906,153,168.8906,27,168.8906,15,156.8906" style="stroke:#3A3A3A;stroke-width:1.5;"/><polygon fill="#E3E3E3" points="177,144.8906,303,144.8906,315,156.8906,303,168.8906,177,168.8906,165,156.8906" style="stroke:#3A3A3A;stroke-width:1.5;"/><polygon fill="#E3E3E3" points="327,144.8906,503,144.8906,515,156.8906,503,168.8906,327,168.8906,315,156.8906" style="stroke:#3A3A3A;stroke-width:1.5;"/><polygon fill="#E3E3E3" points="527,144.8906,1053,144.8906,1065,156.8906,1053,168.8906,527,168.8906,515,156.8906" style="stroke:#3A3A3A;stroke-width:1.5;"/><polygon fill="#E3E3E3" points="1077,144.8906,1803,144.8906,1815,156.8906,1803,168.8906,1077,168.8906,1065,156.8906" style="stroke:#3A3A3A;stroke-width:1.5;"/><polygon fill="#E3E3E3" points="1827,144.8906,2253,144.8906,2265,156.8906,2253,168.8906,1827,168.8906,1815,156.8906" style="stroke:#3A3A3A;stroke-width:1.5;"/><polygon fill="#E3E3E3" points="2277,144.8906,2753,144.8906,2765,156.8906,2753,168.8906,2277,168.8906,2265,156.8906" style="stroke:#3A3A3A;stroke-width:1.5;"/><polygon fill="#E3E3E3" points="2777,144.8906,2815,144.8906,2815,168.8906,2777,168.8906,2765,156.8906" style="stroke:#E3E3E3;stroke-width:1.5;"/><path d="M2815,144.8906 L2777,144.8906 L2765,156.8906 L2777,168.8906 L2815,168.8906" fill="#E3E3E3" style="stroke:#3A3A3A;stroke-width:1.5;"/><text fill="#333333" font-family="sans-serif" font-size="12" font-weight="bold" lengthAdjust="spacing" textLength="73.1777" x="53.4111" y="161.0449">&#1054;&#1078;&#1080;&#1076;&#1072;&#1085;&#1080;&#1077;</text><text fill="#333333" font-family="sans-serif" font-size="12" font-weight="bold" lengthAdjust="spacing" textLength="132.2285" x="173.8857" y="161.0449">&#1054;&#1073;&#1088;&#1072;&#1073;&#1086;&#1090;&#1082;&#1072; &#1076;&#1072;&#1085;&#1085;&#1099;&#1093;</text><text fill="#333333" font-family="sans-serif" font-size="12" font-weight="bold" lengthAdjust="spacing" textLength="143.0625" x="343.4688" y="161.0449">&#1054;&#1073;&#1085;&#1086;&#1074;&#1083;&#1077;&#1085;&#1080;&#1077; &#1079;&#1072;&#1087;&#1072;&#1089;&#1086;&#1074;</text><text fill="#333333" font-family="sans-serif" font-size="12" font-weight="bold" lengthAdjust="spacing" textLength="186.9434" x="696.5283" y="161.0449">&#1055;&#1088;&#1086;&#1074;&#1077;&#1088;&#1082;&#1072; &#1089;&#1088;&#1086;&#1082;&#1086;&#1074; &#1075;&#1086;&#1076;&#1085;&#1086;&#1089;&#1090;&#1080;</text><text fill="#333333" font-family="sans-serif" font-size="12" font-weight="bold" lengthAdjust="spacing" textLength="108.4336" x="1385.7832" y="161.0449">&#1040;&#1085;&#1072;&#1083;&#1080;&#1079; &#1079;&#1072;&#1087;&#1072;&#1089;&#1086;&#1074;</text><text fill="#333333" font-family="sans-serif" font-size="12" font-weight="bold" lengthAdjust="spacing" textLength="131.0215" x="1974.4893" y="161.0449">&#1054;&#1073;&#1088;&#1072;&#1073;&#1086;&#1090;&#1082;&#1072; &#1074;&#1099;&#1073;&#1086;&#1088;&#1072;</text><text fill="#333333" font-family="sans-serif" font-size="12" font-weight="bold" lengthAdjust="spacing" textLength="245.5781" x="2392.2109" y="161.0449">&#1054;&#1073;&#1085;&#1086;&#1074;&#1083;&#1077;&#1085;&#1080;&#1077; &#1079;&#1072;&#1087;&#1072;&#1089;&#1086;&#1074; (&#1091;&#1084;&#1077;&#1085;&#1100;&#1096;&#1077;&#1085;&#1080;&#1077;)</text><text fill="#333333" font-family="sans-serif" font-size="12" font-weight="bold" lengthAdjust="spacing" textLength="73.1777" x="2777" y="161.0449">&#1054;&#1078;&#1080;&#1076;&#1072;&#1085;&#1080;&#1077;</text><line style="stroke:#333333;stroke-width:2;" x1="15" x2="15" y1="178.8906" y2="183.8906"/><line style="stroke:#333333;stroke-width:2;" x1="65" x2="65" y1="178.8906" y2="183.8906"/><line style="stroke:#333333;stroke-width:2;" x1="115" x2="115" y1="178.8906" y2="183.8906"/><line style="stroke:#333333;stroke-width:2;" x1="165" x2="165" y1="178.8906" y2="183.8906"/><line style="stroke:#333333;stroke-width:2;" x1="215" x2="215" y1="178.8906" y2="183.8906"/><line style="stroke:#333333;stroke-width:2;" x1="265" x2="265" y1="178.8906" y2="183.8906"/><line style="stroke:#333333;stroke-width:2;" x1="315" x2="315" y1="178.8906" y2="183.8906"/><line style="stroke:#333333;stroke-width:2;" x1="365" x2="365" y1="178.8906" y2="183.8906"/><line style="stroke:#333333;stroke-width:2;" x1="415" x2="415" y1="178.8906" y2="183.8906"/><line style="stroke:#333333;stroke-width:2;" x1="465" x2="465" y1="178.8906" y2="183.8906"/><line style="stroke:#333333;stroke-width:2;" x1="515" x2="515" y1="178.8906" y2="183.8906"/><line style="stroke:#333333;stroke-width:2;" x1="565" x2="565" y1="178.8906" y2="183.8906"/><line style="stroke:#333333;stroke-width:2;" x1="615" x2="615" y1="178.8906" y2="183.8906"/><line style="stroke:#333333;stroke-width:2;" x1="665" x2="665" y1="178.8906" y2="183.8906"/><line style="stroke:#333333;stroke-width:2;" x1="715" x2="715" y1="178.8906" y2="183.8906"/><line style="stroke:#333333;stroke-width:2;" x1="765" x2="765" y1="178.8906" y2="183.8906"/><line style="stroke:#333333;stroke-width:2;" x1="815" x2="815" y1="178.8906" y2="183.8906"/><line style="stroke:#333333;stroke-width:2;" x1="865" x2="865" y1="178.8906" y2="183.8906"/><line style="stroke:#333333;stroke-width:2;" x1="915" x2="915" y1="178.8906" y2="183.8906"/><line style="stroke:#333333;stroke-width:2;" x1="965" x2="965" y1="178.8906" y2="183.8906"/><line style="stroke:#333333;stroke-width:2;" x1="1015" x2="1015" y1="178.8906" y2="183.8906"/><line style="stroke:#333333;stroke-width:2;" x1="1065" x2="1065" y1="178.8906" y2="183.8906"/><line style="stroke:#333333;stroke-width:2;" x1="1115" x2="1115" y1="178.8906" y2="183.8906"/><line style="stroke:#333333;stroke-width:2;" x1="1165" x2="1165" y1="178.8906" y2="183.8906"/><line style="stroke:#333333;stroke-width:2;" x1="1215" x2="1215" y1="178.8906" y2="183.8906"/><line style="stroke:#333333;stroke-width:2;" x1="1265" x2="1265" y1="178.8906" y2="183.8906"/><line style="stroke:#333333;stroke-width:2;" x1="1315" x2="1315" y1="178.8906" y2="183.8906"/><line style="stroke:#333333;stroke-width:2;" x1="1365" x2="1365" y1="178.8906" y2="183.8906"/><line style="stroke:#333333;stroke-width:2;" x1="1415" x2="1415" y1="178.8906" y2="183.8906"/><line style="stroke:#333333;stroke-width:2;" x1="1465" x2="1465" y1="178.8906" y2="183.8906"/><line style="stroke:#333333;stroke-width:2;" x1="1515" x2="1515" y1="178.8906" y2="183.8906"/><line style="stroke:#333333;stroke-width:2;" x1="1565" x2="1565" y1="178.8906" y2="183.8906"/><line style="stroke:#333333;stroke-width:2;" x1="1615" x2="1615" y1="178.8906" y2="183.8906"/><line style="stroke:#333333;stroke-width:2;" x1="1665" x2="1665" y1="178.8906" y2="183.8906"/><line style="stroke:#333333;stroke-width:2;" x1="1715" x2="1715" y1="178.8906" y2="183.8906"/><line style="stroke:#333333;stroke-width:2;" x1="1765" x2="1765" y1="178.8906" y2="183.8906"/><line style="stroke:#333333;stroke-width:2;" x1="1815" x2="1815" y1="178.8906" y2="183.8906"/><line style="stroke:#333333;stroke-width:2;" x1="1865" x2="1865" y1="178.8906" y2="183.8906"/><line style="stroke:#333333;stroke-width:2;" x1="1915" x2="1915" y1="178.8906" y2="183.8906"/><line style="stroke:#333333;stroke-width:2;" x1="1965" x2="1965" y1="178.8906" y2="183.8906"/><line style="stroke:#333333;stroke-width:2;" x1="2015" x2="2015" y1="178.8906" y2="183.8906"/><line style="stroke:#333333;stroke-width:2;" x1="2065" x2="2065" y1="178.8906" y2="183.8906"/><line style="stroke:#333333;stroke-width:2;" x1="2115" x2="2115" y1="178.8906" y2="183.8906"/><line style="stroke:#333333;stroke-width:2;" x1="2165" x2="2165" y1="178.8906" y2="183.8906"/><line style="stroke:#333333;stroke-width:2;" x1="2215" x2="2215" y1="178.8906" y2="183.8906"/><line style="stroke:#333333;stroke-width:2;" x1="2265" x2="2265" y1="178.8906" y2="183.8906"/><line style="stroke:#333333;stroke-width:2;" x1="2315" x2="2315" y1="178.8906" y2="183.8906"/><line style="stroke:#333333;stroke-width:2;" x1="2365" x2="2365" y1="178.8906" y2="183.8906"/><line style="stroke:#333333;stroke-width:2;" x1="2415" x2="2415" y1="178.8906" y2="183.8906"/><line style="stroke:#333333;stroke-width:2;" x1="2465" x2="2465" y1="178.8906" y2="183.8906"/><line style="stroke:#333333;stroke-width:2;" x1="2515" x2="2515" y1="178.8906" y2="183.8906"/><line style="stroke:#333333;stroke-width:2;" x1="2565" x2="2565" y1="178.8906" y2="183.8906"/><line style="stroke:#333333;stroke-width:2;" x1="2615" x2="2615" y1="178.8906" y2="183.8906"/><line style="stroke:#333333;stroke-width:2;" x1="2665" x2="2665" y1="178.8906" y2="183.8906"/><line style="stroke:#333333;stroke-width:2;" x1="2715" x2="2715" y1="178.8906" y2="183.8906"/><line style="stroke:#333333;stroke-width:2;" x1="2765" x2="2765" y1="178.8906" y2="183.8906"/><line style="stroke:#333333;stroke-width:2;" x1="2815" x2="2815" y1="178.8906" y2="183.8906"/><line style="stroke:#333333;stroke-width:2;" x1="15" x2="2815" y1="178.8906" y2="178.8906"/><text fill="#333333" font-family="sans-serif" font-size="11" lengthAdjust="spacing" textLength="6.9985" x="11.5007" y="195.1011">0</text><text fill="#333333" font-family="sans-serif" font-size="11" lengthAdjust="spacing" textLength="6.9985" x="61.5007" y="195.1011">1</text><text fill="#333333" font-family="sans-serif" font-size="11" lengthAdjust="spacing" textLength="6.9985" x="161.5007" y="195.1011">3</text><text fill="#333333" font-family="sans-serif" font-size="11" lengthAdjust="spacing" textLength="6.9985" x="311.5007" y="195.1011">6</text><text fill="#333333" font-family="sans-serif" font-size="11" lengthAdjust="spacing" textLength="13.9971" x="508.0015" y="195.1011">10</text><text fill="#333333" font-family="sans-serif" font-size="11" lengthAdjust="spacing" textLength="13.9971" x="758.0015" y="195.1011">15</text><text fill="#333333" font-family="sans-serif" font-size="11" lengthAdjust="spacing" textLength="13.9971" x="1058.0015" y="195.1011">21</text><text fill="#333333" font-family="sans-serif" font-size="11" lengthAdjust="spacing" textLength="13.9971" x="1408.0015" y="195.1011">28</text><text fill="#333333" font-family="sans-serif" font-size="11" lengthAdjust="spacing" textLength="13.9971" x="1808.0015" y="195.1011">36</text><text fill="#333333" font-family="sans-serif" font-size="11" lengthAdjust="spacing" textLength="13.9971" x="2258.0015" y="195.1011">45</text><text fill="#333333" font-family="sans-serif" font-size="11" lengthAdjust="spacing" textLength="13.9971" x="2758.0015" y="195.1011">55</text><line style="stroke:#0F0F0F;stroke-width:1.5;" x1="65" x2="65" y1="56.2969" y2="100.5938"/><polygon fill="#0F0F0F" points="62.2638,93.0762,67.7362,93.0762,65,100.5938" style="stroke:#0F0F0F;stroke-width:1.5;"/><text fill="#0F0F0F" font-family="Serif" font-size="14" lengthAdjust="spacing" textLength="174.5078" x="65" y="89.7745">"&#1057;&#1082;&#1072;&#1085;&#1080;&#1088;&#1091;&#1077;&#1090; &#1096;&#1090;&#1088;&#1080;&#1093;-&#1082;&#1086;&#1076;"</text><line style="stroke:#0F0F0F;stroke-width:1.5;" x1="165" x2="165" y1="112.5938" y2="156.8906"/><polygon fill="#0F0F0F" points="162.2638,149.3731,167.7362,149.3731,165,156.8906" style="stroke:#0F0F0F;stroke-width:1.5;"/><text fill="#0F0F0F" font-family="Serif" font-size="14" lengthAdjust="spacing" textLength="228.8125" x="165" y="146.0713">"&#1055;&#1077;&#1088;&#1077;&#1076;&#1072;&#1105;&#1090; &#1076;&#1072;&#1085;&#1085;&#1099;&#1077; &#1086; &#1087;&#1088;&#1086;&#1076;&#1091;&#1082;&#1090;&#1077;"</text><line style="stroke:#0F0F0F;stroke-width:1.5;" x1="765" x2="765" y1="144.8906" y2="44.2969"/><polygon fill="#0F0F0F" points="767.7362,51.8144,762.2638,51.8144,765,44.2969" style="stroke:#0F0F0F;stroke-width:1.5;"/><text fill="#0F0F0F" font-family="Serif" font-size="14" lengthAdjust="spacing" textLength="303.6797" x="765" y="64.8095">"&#1054;&#1090;&#1087;&#1088;&#1072;&#1074;&#1083;&#1103;&#1077;&#1090; &#1091;&#1074;&#1077;&#1076;&#1086;&#1084;&#1083;&#1077;&#1085;&#1080;&#1077; (&#1077;&#1089;&#1083;&#1080; &#1085;&#1091;&#1078;&#1085;&#1086;)"</text><line style="stroke:#0F0F0F;stroke-width:1.5;" x1="1415" x2="1415" y1="144.8906" y2="44.2969"/><polygon fill="#0F0F0F" points="1417.7362,51.8144,1412.2638,51.8144,1415,44.2969" style="stroke:#0F0F0F;stroke-width:1.5;"/><text fill="#0F0F0F" font-family="Serif" font-size="14" lengthAdjust="spacing" textLength="167.1113" x="1415" y="64.8095">"&#1055;&#1088;&#1077;&#1076;&#1083;&#1072;&#1075;&#1072;&#1077;&#1090; &#1088;&#1077;&#1094;&#1077;&#1087;&#1090;&#1099;"</text><line style="stroke:#0F0F0F;stroke-width:1.5;" x1="1815" x2="1815" y1="56.2969" y2="156.8906"/><polygon fill="#0F0F0F" points="1812.2638,149.3731,1817.7362,149.3731,1815,156.8906" style="stroke:#0F0F0F;stroke-width:1.5;"/><text fill="#0F0F0F" font-family="Serif" font-size="14" lengthAdjust="spacing" textLength="141.4697" x="1815" y="146.0713">"&#1042;&#1099;&#1073;&#1080;&#1088;&#1072;&#1077;&#1090; &#1088;&#1077;&#1094;&#1077;&#1087;&#1090;"</text><!--SRC=[dLFPIiDG47tFLrpwf4YXxik3AEed-04bH5gaJMdKvowuW8Mwl8f5_85qYOtQ9hymyqUUkKbiWWleGsbovsmpS-CSbwkrOhrOKHMxQfkbkbsnr4dzr39CksgM7Klbg4S1lNE7nlWVaCijykGzfugEEdIiUWhwp4rkSGF0Lta2F507fhrNieuqVDywAvjfxGT0- -Hh_IcUFKKX-3Z0omkCfdZsD7UtLZDs2eOugh83xYC0Fet8ZK56f1uLxoc0lmGESWQeFr1s5XOZnVns74vj0VT4Rn666zmcZrkAhtHZFf_dKGjebBLB4Q8fpGoM4Y0i9CYM7ga7e2T9-1RgSQGfNyi4WcW8C87vcymxqq8VDHTJamRXcYBpkHWkPy1wh0FCCvwbmXvT2c7Sb88GLcQ4NfnVueasjYW7ql50qL0oYQ1UhY_SLSr5QtgAqjiZIg6E25VkHjDhYoQu0KrIKUPGREBTLqZVncuWFPzBhJYwUcs-_AHyfyHTIR8sw-86fwxeqlYRTjU_HEx5otW7T8YVZemZli1nYCLVPqB9I20taGrm8uDCF3O-RrMoyZlijg_lnrVztzSxqCn0ZaLwyo_hLNCOs4IAtE6h13IlBtxXb-_Y7r_P1m00]--></g></svg>