<svg xmlns="http://www.w3.org/2000/svg" xmlns:xlink="http://www.w3.org/1999/xlink" contentStyleType="text/css" data-diagram-type="ACTIVITY" height="607px" preserveAspectRatio="none" style="width:568px;height:607px;background:#FFFFFF;" version="1.1" viewBox="0 0 568 607" width="568px" zoomAndPan="magnify"><defs/><g><ellipse cx="284.2969" cy="20" fill="#222222" rx="10" ry="10" style="stroke:#222222;stroke-width:1;"/><rect fill="#F1F1F1" height="33.9688" rx="12.5" ry="12.5" style="stroke:#181818;stroke-width:0.5;" width="313.25" x="127.6719" y="50"/><text fill="#000000" font-family="sans-serif" font-size="12" lengthAdjust="spacing" textLength="293.25" x="137.6719" y="71.1387">&#1055;&#1086;&#1083;&#1100;&#1079;&#1086;&#1074;&#1072;&#1090;&#1077;&#1083;&#1100; &#1089;&#1082;&#1072;&#1085;&#1080;&#1088;&#1091;&#1077;&#1090; &#1096;&#1090;&#1088;&#1080;&#1093;-&#1082;&#1086;&#1076; &#1087;&#1088;&#1086;&#1076;&#1091;&#1082;&#1090;&#1072;</text><rect fill="#F1F1F1" height="33.9688" rx="12.5" ry="12.5" style="stroke:#181818;stroke-width:0.5;" width="427.584" x="70.5049" y="103.9688"/><text fill="#000000" font-family="sans-serif" font-size="12" lengthAdjust="spacing" textLength="407.584" x="80.5049" y="125.1074">&#1059;&#1089;&#1090;&#1088;&#1086;&#1081;&#1089;&#1090;&#1074;&#1086; EcoChef &#1087;&#1077;&#1088;&#1077;&#1076;&#1072;&#1077;&#1090; &#1076;&#1072;&#1085;&#1085;&#1099;&#1077; &#1074; &#1084;&#1086;&#1073;&#1080;&#1083;&#1100;&#1085;&#1086;&#1077; &#1087;&#1088;&#1080;&#1083;&#1086;&#1078;&#1077;&#1085;&#1080;&#1077;</text><rect fill="#F1F1F1" height="33.9688" rx="12.5" ry="12.5" style="stroke:#181818;stroke-width:0.5;" width="329.7324" x="119.4307" y="157.9375"/><text fill="#000000" font-family="sans-serif" font-size="12" lengthAdjust="spacing" textLength="309.7324" x="129.4307" y="179.0762">&#1052;&#1086;&#1073;&#1080;&#1083;&#1100;&#1085;&#1086;&#1077; &#1087;&#1088;&#1080;&#1083;&#1086;&#1078;&#1077;&#1085;&#1080;&#1077; &#1086;&#1073;&#1085;&#1086;&#1074;&#1083;&#1103;&#1077;&#1090; &#1091;&#1095;&#1105;&#1090; &#1079;&#1072;&#1087;&#1072;&#1089;&#1086;&#1074;</text><rect fill="#F1F1F1" height="33.9688" rx="12.5" ry="12.5" style="stroke:#181818;stroke-width:0.5;" width="432.9922" x="67.8008" y="260.3086"/><text fill="#000000" font-family="sans-serif" font-size="12" lengthAdjust="spacing" textLength="412.9922" x="77.8008" y="281.4473">&#1052;&#1086;&#1073;&#1080;&#1083;&#1100;&#1085;&#1086;&#1077; &#1087;&#1088;&#1080;&#1083;&#1086;&#1078;&#1077;&#1085;&#1080;&#1077; &#1086;&#1090;&#1087;&#1088;&#1072;&#1074;&#1083;&#1103;&#1077;&#1090; &#1091;&#1074;&#1077;&#1076;&#1086;&#1084;&#1083;&#1077;&#1085;&#1080;&#1077; &#1087;&#1086;&#1083;&#1100;&#1079;&#1086;&#1074;&#1072;&#1090;&#1077;&#1083;&#1102;</text><polygon fill="#F1F1F1" points="216.9487,211.9063,351.645,211.9063,363.645,223.9063,351.645,235.9063,216.9487,235.9063,204.9487,223.9063,216.9487,211.9063" style="stroke:#181818;stroke-width:0.5;"/><text fill="#000000" font-family="sans-serif" font-size="11" lengthAdjust="spacing" textLength="14.3462" x="288.2969" y="246.1167">&#1076;&#1072;</text><text fill="#000000" font-family="sans-serif" font-size="11" lengthAdjust="spacing" textLength="134.6963" x="216.9487" y="227.7144">&#1057;&#1088;&#1086;&#1082; &#1075;&#1086;&#1076;&#1085;&#1086;&#1089;&#1090;&#1080; &#1073;&#1083;&#1080;&#1079;&#1086;&#1082;?</text><text fill="#000000" font-family="sans-serif" font-size="11" lengthAdjust="spacing" textLength="20.3672" x="363.645" y="221.312">&#1085;&#1077;&#1090;</text><polygon fill="#F1F1F1" points="284.2969,314.2773,296.2969,326.2773,284.2969,338.2773,272.2969,326.2773,284.2969,314.2773" style="stroke:#181818;stroke-width:0.5;"/><rect fill="#F1F1F1" height="33.9688" rx="12.5" ry="12.5" style="stroke:#181818;stroke-width:0.5;" width="307.4434" x="130.5752" y="358.2773"/><text fill="#000000" font-family="sans-serif" font-size="12" lengthAdjust="spacing" textLength="287.4434" x="140.5752" y="379.416">&#1052;&#1086;&#1073;&#1080;&#1083;&#1100;&#1085;&#1086;&#1077; &#1087;&#1088;&#1080;&#1083;&#1086;&#1078;&#1077;&#1085;&#1080;&#1077; &#1072;&#1085;&#1072;&#1083;&#1080;&#1079;&#1080;&#1088;&#1091;&#1077;&#1090; &#1079;&#1072;&#1087;&#1072;&#1089;&#1099;</text><rect fill="#F1F1F1" height="33.9688" rx="12.5" ry="12.5" style="stroke:#181818;stroke-width:0.5;" width="310.2031" x="129.1953" y="412.2461"/><text fill="#000000" font-family="sans-serif" font-size="12" lengthAdjust="spacing" textLength="290.2031" x="139.1953" y="433.3848">&#1052;&#1086;&#1073;&#1080;&#1083;&#1100;&#1085;&#1086;&#1077; &#1087;&#1088;&#1080;&#1083;&#1086;&#1078;&#1077;&#1085;&#1080;&#1077; &#1087;&#1088;&#1077;&#1076;&#1083;&#1072;&#1075;&#1072;&#1077;&#1090; &#1088;&#1077;&#1094;&#1077;&#1087;&#1090;&#1099;</text><rect fill="#F1F1F1" height="33.9688" rx="12.5" ry="12.5" style="stroke:#181818;stroke-width:0.5;" width="222.4766" x="173.0586" y="466.2148"/><text fill="#000000" font-family="sans-serif" font-size="12" lengthAdjust="spacing" textLength="202.4766" x="183.0586" y="487.3535">&#1055;&#1086;&#1083;&#1100;&#1079;&#1086;&#1074;&#1072;&#1090;&#1077;&#1083;&#1100; &#1074;&#1099;&#1073;&#1080;&#1088;&#1072;&#1077;&#1090; &#1088;&#1077;&#1094;&#1077;&#1087;&#1090;</text><rect fill="#F1F1F1" height="33.9688" rx="12.5" ry="12.5" style="stroke:#181818;stroke-width:0.5;" width="546.5938" x="11" y="520.1836"/><text fill="#000000" font-family="sans-serif" font-size="12" lengthAdjust="spacing" textLength="526.5938" x="21" y="541.3223">&#1052;&#1086;&#1073;&#1080;&#1083;&#1100;&#1085;&#1086;&#1077; &#1087;&#1088;&#1080;&#1083;&#1086;&#1078;&#1077;&#1085;&#1080;&#1077; &#1086;&#1073;&#1085;&#1086;&#1074;&#1083;&#1103;&#1077;&#1090; &#1079;&#1072;&#1087;&#1072;&#1089;&#1099; (&#1091;&#1084;&#1077;&#1085;&#1100;&#1096;&#1072;&#1077;&#1090; &#1082;&#1086;&#1083;&#1080;&#1095;&#1077;&#1089;&#1090;&#1074;&#1086; &#1080;&#1085;&#1075;&#1088;&#1077;&#1076;&#1080;&#1077;&#1085;&#1090;&#1086;&#1074;)</text><ellipse cx="284.2969" cy="585.1523" fill="none" rx="11" ry="11" style="stroke:#222222;stroke-width:1;"/><ellipse cx="284.2969" cy="585.1523" fill="#222222" rx="6" ry="6" style="stroke:#222222;stroke-width:1;"/><line style="stroke:#181818;stroke-width:1;" x1="284.2969" x2="284.2969" y1="30" y2="50"/><polygon fill="#181818" points="280.2969,40,284.2969,50,288.2969,40,284.2969,44" style="stroke:#181818;stroke-width:1;"/><line style="stroke:#181818;stroke-width:1;" x1="284.2969" x2="284.2969" y1="83.9688" y2="103.9688"/><polygon fill="#181818" points="280.2969,93.9688,284.2969,103.9688,288.2969,93.9688,284.2969,97.9688" style="stroke:#181818;stroke-width:1;"/><line style="stroke:#181818;stroke-width:1;" x1="284.2969" x2="284.2969" y1="137.9375" y2="157.9375"/><polygon fill="#181818" points="280.2969,147.9375,284.2969,157.9375,288.2969,147.9375,284.2969,151.9375" style="stroke:#181818;stroke-width:1;"/><line style="stroke:#181818;stroke-width:1;" x1="284.2969" x2="284.2969" y1="235.9063" y2="260.3086"/><polygon fill="#181818" points="280.2969,250.3086,284.2969,260.3086,288.2969,250.3086,284.2969,254.3086" style="stroke:#181818;stroke-width:1;"/><line style="stroke:#181818;stroke-width:1;" x1="363.645" x2="510.793" y1="223.9063" y2="223.9063"/><polygon fill="#181818" points="506.793,267.293,510.793,277.293,514.793,267.293,510.793,271.293" style="stroke:#181818;stroke-width:1;"/><line style="stroke:#181818;stroke-width:1;" x1="510.793" x2="510.793" y1="223.9063" y2="326.2773"/><line style="stroke:#181818;stroke-width:1;" x1="510.793" x2="296.2969" y1="326.2773" y2="326.2773"/><polygon fill="#181818" points="306.2969,322.2773,296.2969,326.2773,306.2969,330.2773,302.2969,326.2773" style="stroke:#181818;stroke-width:1;"/><line style="stroke:#181818;stroke-width:1;" x1="284.2969" x2="284.2969" y1="294.2773" y2="314.2773"/><polygon fill="#181818" points="280.2969,304.2773,284.2969,314.2773,288.2969,304.2773,284.2969,308.2773" style="stroke:#181818;stroke-width:1;"/><line style="stroke:#181818;stroke-width:1;" x1="284.2969" x2="284.2969" y1="191.9063" y2="211.9063"/><polygon fill="#181818" points="280.2969,201.9063,284.2969,211.9063,288.2969,201.9063,284.2969,205.9063" style="stroke:#181818;stroke-width:1;"/><line style="stroke:#181818;stroke-width:1;" x1="284.2969" x2="284.2969" y1="338.2773" y2="358.2773"/><polygon fill="#181818" points="280.2969,348.2773,284.2969,358.2773,288.2969,348.2773,284.2969,352.2773" style="stroke:#181818;stroke-width:1;"/><line style="stroke:#181818;stroke-width:1;" x1="284.2969" x2="284.2969" y1="392.2461" y2="412.2461"/><polygon fill="#181818" points="280.2969,402.2461,284.2969,412.2461,288.2969,402.2461,284.2969,406.2461" style="stroke:#181818;stroke-width:1;"/><line style="stroke:#181818;stroke-width:1;" x1="284.2969" x2="284.2969" y1="446.2148" y2="466.2148"/><polygon fill="#181818" points="280.2969,456.2148,284.2969,466.2148,288.2969,456.2148,284.2969,460.2148" style="stroke:#181818;stroke-width:1;"/><line style="stroke:#181818;stroke-width:1;" x1="284.2969" x2="284.2969" y1="500.1836" y2="520.1836"/><polygon fill="#181818" points="280.2969,510.1836,284.2969,520.1836,288.2969,510.1836,284.2969,514.1836" style="stroke:#181818;stroke-width:1;"/><line style="stroke:#181818;stroke-width:1;" x1="284.2969" x2="284.2969" y1="554.1523" y2="574.1523"/><polygon fill="#181818" points="280.2969,564.1523,284.2969,574.1523,288.2969,564.1523,284.2969,568.1523" style="stroke:#181818;stroke-width:1;"/><!--SRC=[fLDDJi9G4Dxt56z95rx0BbmO3qBm4OZIabBtKAAGG3JkJOpn0kMdKbjUUuMP6_dDemHDC96uwioyRxwPRsOwkEdw_MROxAbUu0UjJXZqj8h2E-qCecOOEUVqIYKLFASDlajAEAPKVCKZoYaXGnaFUKmfnugd7FCGWVipl9MqLbJ1Xm50Zip40-4xZooif4-nG5gggrPmsT5ju44qH8Krg8NI6eOCpoXLj5IqHTw2CjkIWPtkQY00vmEPQ8XIgVFo9wIoA6F55Voqqp7c2JzBzGsgLn0zadVFwRPLWzvixxcYbIYJL2iZK-0fG2c3oYzS5NMq3pW4kATq0ofvI7xq0qTcKa9-SS1MHrVpw3dwTg1HsaYswsZ_kji-eGKPU59BEIptC0kUdJBUgjvdWVHLlLK9yGF25Ix1ilrsPRJ4vXVInf7K_stvko3LWCgje7dEq_tjoGrZ33o1kxzKi1bQrPeocn4BhUlXZmdwNm00]--></g></svg>