<svg xmlns="http://www.w3.org/2000/svg" xmlns:xlink="http://www.w3.org/1999/xlink" contentStyleType="text/css" data-diagram-type="SEQUENCE" height="533px" preserveAspectRatio="none" style="width:993px;height:533px;background:#FFFFFF;" version="1.1" viewBox="0 0 993 533" width="993px" zoomAndPan="magnify"><defs/><g><rect fill="none" height="46.2656" style="stroke:#000000;stroke-width:1.5;" width="654.1182" x="10" y="243.9609"/><g><title>&#1055;&#1086;&#1083;&#1100;&#1079;&#1086;&#1074;&#1072;&#1090;&#1077;&#1083;&#1100;</title><rect fill="#000000" fill-opacity="0.00000" height="371.5938" width="8" x="70.5498" y="81.2969"/><line style="stroke:#181818;stroke-width:0.5;stroke-dasharray:5.0,5.0;" x1="74" x2="74" y1="81.2969" y2="452.8906"/></g><g><title>&#1059;&#1089;&#1090;&#1088;&#1086;&#1081;&#1089;&#1090;&#1074;&#1086; EcoChef</title><rect fill="#000000" fill-opacity="0.00000" height="371.5938" width="8" x="266.2983" y="81.2969"/><line style="stroke:#181818;stroke-width:0.5;stroke-dasharray:5.0,5.0;" x1="269.6221" x2="269.6221" y1="81.2969" y2="452.8906"/></g><g><title>&#1052;&#1086;&#1073;&#1080;&#1083;&#1100;&#1085;&#1086;&#1077; &#1087;&#1088;&#1080;&#1083;&#1086;&#1078;&#1077;&#1085;&#1080;&#1077;</title><rect fill="#000000" fill-opacity="0.00000" height="371.5938" width="8" x="553.5674" y="81.2969"/><line style="stroke:#181818;stroke-width:0.5;stroke-dasharray:5.0,5.0;" x1="557.0166" x2="557.0166" y1="81.2969" y2="452.8906"/></g><g><title>&#1041;&#1072;&#1079;&#1072; &#1076;&#1072;&#1085;&#1085;&#1099;&#1093;</title><rect fill="#000000" fill-opacity="0.00000" height="371.5938" width="8" x="938.5396" y="81.2969"/><line style="stroke:#181818;stroke-width:0.5;stroke-dasharray:5.0,5.0;" x1="942.2588" x2="942.2588" y1="81.2969" y2="452.8906"/></g><g class="participant participant-head" data-participant="&#1055;&#1086;&#1083;&#1100;&#1079;&#1086;&#1074;&#1072;&#1090;&#1077;&#1083;&#1100;"><text fill="#000000" font-family="sans-serif" font-size="14" lengthAdjust="spacing" textLength="103.0996" x="20" y="77.9951">&#1055;&#1086;&#1083;&#1100;&#1079;&#1086;&#1074;&#1072;&#1090;&#1077;&#1083;&#1100;</text><ellipse cx="74.5498" cy="13.5" fill="#E3E3E3" rx="8" ry="8" style="stroke:#181818;stroke-width:0.5;"/><path d="M74.5498,21.5 L74.5498,48.5 M61.5498,29.5 L87.5498,29.5 M74.5498,48.5 L61.5498,63.5 M74.5498,48.5 L87.5498,63.5" fill="none" style="stroke:#181818;stroke-width:0.5;"/></g><g class="participant participant-tail" data-participant="&#1055;&#1086;&#1083;&#1100;&#1079;&#1086;&#1074;&#1072;&#1090;&#1077;&#1083;&#1100;"><text fill="#000000" font-family="sans-serif" font-size="14" lengthAdjust="spacing" textLength="103.0996" x="20" y="464.8857">&#1055;&#1086;&#1083;&#1100;&#1079;&#1086;&#1074;&#1072;&#1090;&#1077;&#1083;&#1100;</text><ellipse cx="74.5498" cy="476.6875" fill="#E3E3E3" rx="8" ry="8" style="stroke:#181818;stroke-width:0.5;"/><path d="M74.5498,484.6875 L74.5498,511.6875 M61.5498,492.6875 L87.5498,492.6875 M74.5498,511.6875 L61.5498,526.6875 M74.5498,511.6875 L87.5498,526.6875" fill="none" style="stroke:#181818;stroke-width:0.5;"/></g><g class="participant participant-head" data-participant="Device"><rect fill="#E3E3E3" height="30.2969" rx="2.5" ry="2.5" style="stroke:#181818;stroke-width:0.5;" width="159.3525" x="190.6221" y="50"/><text fill="#000000" font-family="sans-serif" font-size="14" lengthAdjust="spacing" textLength="145.3525" x="197.6221" y="69.9951">&#1059;&#1089;&#1090;&#1088;&#1086;&#1081;&#1089;&#1090;&#1074;&#1086; EcoChef</text></g><g class="participant participant-tail" data-participant="Device"><rect fill="#E3E3E3" height="30.2969" rx="2.5" ry="2.5" style="stroke:#181818;stroke-width:0.5;" width="159.3525" x="190.6221" y="451.8906"/><text fill="#000000" font-family="sans-serif" font-size="14" lengthAdjust="spacing" textLength="145.3525" x="197.6221" y="471.8857">&#1059;&#1089;&#1090;&#1088;&#1086;&#1081;&#1089;&#1090;&#1074;&#1086; EcoChef</text></g><g class="participant participant-head" data-participant="App"><rect fill="#E3E3E3" height="30.2969" rx="2.5" ry="2.5" style="stroke:#181818;stroke-width:0.5;" width="193.1016" x="461.0166" y="50"/><text fill="#000000" font-family="sans-serif" font-size="14" lengthAdjust="spacing" textLength="179.1016" x="468.0166" y="69.9951">&#1052;&#1086;&#1073;&#1080;&#1083;&#1100;&#1085;&#1086;&#1077; &#1087;&#1088;&#1080;&#1083;&#1086;&#1078;&#1077;&#1085;&#1080;&#1077;</text></g><g class="participant participant-tail" data-participant="App"><rect fill="#E3E3E3" height="30.2969" rx="2.5" ry="2.5" style="stroke:#181818;stroke-width:0.5;" width="193.1016" x="461.0166" y="451.8906"/><text fill="#000000" font-family="sans-serif" font-size="14" lengthAdjust="spacing" textLength="179.1016" x="468.0166" y="471.8857">&#1052;&#1086;&#1073;&#1080;&#1083;&#1100;&#1085;&#1086;&#1077; &#1087;&#1088;&#1080;&#1083;&#1086;&#1078;&#1077;&#1085;&#1080;&#1077;</text></g><g class="participant participant-head" data-participant="DB"><text fill="#000000" font-family="sans-serif" font-size="14" lengthAdjust="spacing" textLength="94.5615" x="892.2588" y="77.9951">&#1041;&#1072;&#1079;&#1072; &#1076;&#1072;&#1085;&#1085;&#1099;&#1093;</text><path d="M924.5396,29 C924.5396,19 942.5396,19 942.5396,19 C942.5396,19 960.5396,19 960.5396,29 L960.5396,55 C960.5396,65 942.5396,65 942.5396,65 C942.5396,65 924.5396,65 924.5396,55 L924.5396,29" fill="#E3E3E3" style="stroke:#181818;stroke-width:1.5;"/><path d="M924.5396,29 C924.5396,39 942.5396,39 942.5396,39 C942.5396,39 960.5396,39 960.5396,29" fill="none" style="stroke:#181818;stroke-width:1.5;"/></g><g class="participant participant-tail" data-participant="DB"><text fill="#000000" font-family="sans-serif" font-size="14" lengthAdjust="spacing" textLength="94.5615" x="892.2588" y="464.8857">&#1041;&#1072;&#1079;&#1072; &#1076;&#1072;&#1085;&#1085;&#1099;&#1093;</text><path d="M924.5396,478.1875 C924.5396,468.1875 942.5396,468.1875 942.5396,468.1875 C942.5396,468.1875 960.5396,468.1875 960.5396,478.1875 L960.5396,504.1875 C960.5396,514.1875 942.5396,514.1875 942.5396,514.1875 C942.5396,514.1875 924.5396,514.1875 924.5396,504.1875 L924.5396,478.1875" fill="#E3E3E3" style="stroke:#181818;stroke-width:1.5;"/><path d="M924.5396,478.1875 C924.5396,488.1875 942.5396,488.1875 942.5396,488.1875 C942.5396,488.1875 960.5396,488.1875 960.5396,478.1875" fill="none" style="stroke:#181818;stroke-width:1.5;"/></g><g class="message" data-participant-1="&#1055;&#1086;&#1083;&#1100;&#1079;&#1086;&#1074;&#1072;&#1090;&#1077;&#1083;&#1100;" data-participant-2="Device"><polygon fill="#181818" points="258.2983,108.4297,268.2983,112.4297,258.2983,116.4297,262.2983,112.4297" style="stroke:#181818;stroke-width:1;"/><line style="stroke:#181818;stroke-width:1;" x1="74.5498" x2="264.2983" y1="112.4297" y2="112.4297"/><text fill="#000000" font-family="sans-serif" font-size="13" lengthAdjust="spacing" textLength="171.7485" x="81.5498" y="107.3638">1. &#1089;&#1082;&#1072;&#1085;&#1080;&#1088;&#1086;&#1074;&#1072;&#1090;&#1100;&#1055;&#1088;&#1086;&#1076;&#1091;&#1082;&#1090;()</text></g><g class="message" data-participant-1="Device" data-participant-2="App"><polygon fill="#181818" points="545.5674,137.5625,555.5674,141.5625,545.5674,145.5625,549.5674,141.5625" style="stroke:#181818;stroke-width:1;"/><line style="stroke:#181818;stroke-width:1;" x1="270.2983" x2="551.5674" y1="141.5625" y2="141.5625"/><text fill="#000000" font-family="sans-serif" font-size="13" lengthAdjust="spacing" textLength="263.269" x="277.2983" y="136.4966">2. &#1087;&#1077;&#1088;&#1077;&#1076;&#1072;&#1090;&#1100;&#1044;&#1072;&#1085;&#1085;&#1099;&#1077;&#1055;&#1088;&#1086;&#1076;&#1091;&#1082;&#1090;&#1072;(&#1076;&#1072;&#1085;&#1085;&#1099;&#1077;)</text></g><g class="message" data-participant-1="App" data-participant-2="DB"><polygon fill="#181818" points="930.5396,166.6953,940.5396,170.6953,930.5396,174.6953,934.5396,170.6953" style="stroke:#181818;stroke-width:1;"/><line style="stroke:#181818;stroke-width:1;" x1="557.5674" x2="936.5396" y1="170.6953" y2="170.6953"/><text fill="#000000" font-family="sans-serif" font-size="13" lengthAdjust="spacing" textLength="192.8418" x="564.5674" y="165.6294">3. &#1086;&#1073;&#1085;&#1086;&#1074;&#1080;&#1090;&#1100;&#1047;&#1072;&#1087;&#1072;&#1089;&#1099;(&#1076;&#1072;&#1085;&#1085;&#1099;&#1077;)</text></g><g class="message" data-participant-1="App" data-participant-2="DB"><polygon fill="#181818" points="930.5396,195.8281,940.5396,199.8281,930.5396,203.8281,934.5396,199.8281" style="stroke:#181818;stroke-width:1;"/><line style="stroke:#181818;stroke-width:1;" x1="557.5674" x2="936.5396" y1="199.8281" y2="199.8281"/><text fill="#000000" font-family="sans-serif" font-size="13" lengthAdjust="spacing" textLength="253.3857" x="564.5674" y="194.7622">4. &#1087;&#1086;&#1083;&#1091;&#1095;&#1080;&#1090;&#1100;&#1057;&#1088;&#1086;&#1082;&#1080;&#1043;&#1086;&#1076;&#1085;&#1086;&#1089;&#1090;&#1080;(&#1087;&#1088;&#1086;&#1076;&#1091;&#1082;&#1090;)</text></g><g class="message" data-participant-1="DB" data-participant-2="App"><polygon fill="#181818" points="568.5674,224.9609,558.5674,228.9609,568.5674,232.9609,564.5674,228.9609" style="stroke:#181818;stroke-width:1;"/><line style="stroke:#181818;stroke-width:1;" x1="562.5674" x2="941.5396" y1="228.9609" y2="228.9609"/><text fill="#000000" font-family="sans-serif" font-size="13" lengthAdjust="spacing" textLength="227.7476" x="574.5674" y="223.895">5. &#1074;&#1077;&#1088;&#1085;&#1091;&#1090;&#1100;&#1057;&#1088;&#1086;&#1082;&#1080;&#1043;&#1086;&#1076;&#1085;&#1086;&#1089;&#1090;&#1080;(&#1089;&#1088;&#1086;&#1082;&#1080;)</text></g><path d="M10,243.9609 L74.4429,243.9609 L74.4429,251.0938 L64.4429,261.0938 L10,261.0938 L10,243.9609" fill="#EEEEEE" style="stroke:#000000;stroke-width:1.5;"/><rect fill="none" height="46.2656" style="stroke:#000000;stroke-width:1.5;" width="654.1182" x="10" y="243.9609"/><text fill="#000000" font-family="sans-serif" font-size="13" font-weight="bold" lengthAdjust="spacing" textLength="19.4429" x="25" y="257.0278">alt</text><text fill="#000000" font-family="sans-serif" font-size="11" font-weight="bold" lengthAdjust="spacing" textLength="151.4917" x="89.4429" y="256.1714">[&#1057;&#1088;&#1086;&#1082; &#1075;&#1086;&#1076;&#1085;&#1086;&#1089;&#1090;&#1080; &#1073;&#1083;&#1080;&#1079;&#1086;&#1082;]</text><g class="message" data-participant-1="App" data-participant-2="&#1055;&#1086;&#1083;&#1100;&#1079;&#1086;&#1074;&#1072;&#1090;&#1077;&#1083;&#1100;"><polygon fill="#181818" points="85.5498,278.2266,75.5498,282.2266,85.5498,286.2266,81.5498,282.2266" style="stroke:#181818;stroke-width:1;"/><line style="stroke:#181818;stroke-width:1;" x1="79.5498" x2="556.5674" y1="282.2266" y2="282.2266"/><text fill="#000000" font-family="sans-serif" font-size="13" lengthAdjust="spacing" textLength="266.1128" x="91.5498" y="277.1606">6. &#1086;&#1090;&#1087;&#1088;&#1072;&#1074;&#1080;&#1090;&#1100;&#1059;&#1074;&#1077;&#1076;&#1086;&#1084;&#1083;&#1077;&#1085;&#1080;&#1077;(&#1089;&#1086;&#1086;&#1073;&#1097;&#1077;&#1085;&#1080;&#1077;)</text></g><g class="message" data-participant-1="App" data-participant-2="DB"><polygon fill="#181818" points="930.5396,314.3594,940.5396,318.3594,930.5396,322.3594,934.5396,318.3594" style="stroke:#181818;stroke-width:1;"/><line style="stroke:#181818;stroke-width:1;" x1="557.5674" x2="936.5396" y1="318.3594" y2="318.3594"/><text fill="#000000" font-family="sans-serif" font-size="13" lengthAdjust="spacing" textLength="213.1797" x="564.5674" y="313.2935">7. &#1087;&#1086;&#1083;&#1091;&#1095;&#1080;&#1090;&#1100;&#1057;&#1087;&#1080;&#1089;&#1086;&#1082;&#1055;&#1088;&#1086;&#1076;&#1091;&#1082;&#1090;&#1086;&#1074;()</text></g><g class="message" data-participant-1="DB" data-participant-2="App"><polygon fill="#181818" points="568.5674,343.4922,558.5674,347.4922,568.5674,351.4922,564.5674,347.4922" style="stroke:#181818;stroke-width:1;"/><line style="stroke:#181818;stroke-width:1;" x1="562.5674" x2="941.5396" y1="347.4922" y2="347.4922"/><text fill="#000000" font-family="sans-serif" font-size="13" lengthAdjust="spacing" textLength="251.748" x="574.5674" y="342.4263">8. &#1074;&#1077;&#1088;&#1085;&#1091;&#1090;&#1100;&#1057;&#1087;&#1080;&#1089;&#1086;&#1082;&#1055;&#1088;&#1086;&#1076;&#1091;&#1082;&#1090;&#1086;&#1074;(&#1089;&#1087;&#1080;&#1089;&#1086;&#1082;)</text></g><g class="message" data-participant-1="App" data-participant-2="&#1055;&#1086;&#1083;&#1100;&#1079;&#1086;&#1074;&#1072;&#1090;&#1077;&#1083;&#1100;"><polygon fill="#181818" points="85.5498,372.625,75.5498,376.625,85.5498,380.625,81.5498,376.625" style="stroke:#181818;stroke-width:1;"/><line style="stroke:#181818;stroke-width:1;" x1="79.5498" x2="556.5674" y1="376.625" y2="376.625"/><text fill="#000000" font-family="sans-serif" font-size="13" lengthAdjust="spacing" textLength="230.5278" x="91.5498" y="371.5591">9. &#1087;&#1088;&#1077;&#1076;&#1083;&#1086;&#1078;&#1080;&#1090;&#1100;&#1056;&#1077;&#1094;&#1077;&#1087;&#1090;&#1099;(&#1088;&#1077;&#1094;&#1077;&#1087;&#1090;&#1099;)</text></g><g class="message" data-participant-1="&#1055;&#1086;&#1083;&#1100;&#1079;&#1086;&#1074;&#1072;&#1090;&#1077;&#1083;&#1100;" data-participant-2="App"><polygon fill="#181818" points="545.5674,401.7578,555.5674,405.7578,545.5674,409.7578,549.5674,405.7578" style="stroke:#181818;stroke-width:1;"/><line style="stroke:#181818;stroke-width:1;" x1="74.5498" x2="551.5674" y1="405.7578" y2="405.7578"/><text fill="#000000" font-family="sans-serif" font-size="13" lengthAdjust="spacing" textLength="190.271" x="81.5498" y="400.6919">10. &#1074;&#1099;&#1073;&#1088;&#1072;&#1090;&#1100;&#1056;&#1077;&#1094;&#1077;&#1087;&#1090;(&#1088;&#1077;&#1094;&#1077;&#1087;&#1090;)</text></g><g class="message" data-participant-1="App" data-participant-2="DB"><polygon fill="#181818" points="930.5396,430.8906,940.5396,434.8906,930.5396,438.8906,934.5396,434.8906" style="stroke:#181818;stroke-width:1;"/><line style="stroke:#181818;stroke-width:1;" x1="557.5674" x2="936.5396" y1="434.8906" y2="434.8906"/><text fill="#000000" font-family="sans-serif" font-size="13" lengthAdjust="spacing" textLength="360.9722" x="564.5674" y="429.8247">11. &#1086;&#1073;&#1085;&#1086;&#1074;&#1080;&#1090;&#1100;&#1047;&#1072;&#1087;&#1072;&#1089;&#1099;(&#1080;&#1089;&#1087;&#1086;&#1083;&#1100;&#1079;&#1086;&#1074;&#1072;&#1085;&#1085;&#1099;&#1077;_&#1080;&#1085;&#1075;&#1088;&#1077;&#1076;&#1080;&#1077;&#1085;&#1090;&#1099;)</text></g><!--SRC=[XLBBRjDG4DtxAqPTsGiYmgCjMI0Hw7UWY-kgKPiuIWnhageW53O893QL2keFk0-thbidlp3tZpWpjbESDkdgtfaxvyoPSsUur-drpS1qgHlsGdzt47O3YWOV0yVuKJWWFkOftzZlV8NpZ6CxvaHY1w2eutVwfXVH6f_OaHtRpwYvbXigfxJbXsztWvqrCaDw5tpg-C42w0ZbfvmgVOvxGZm31n88Bj4dnprH_9j-tzasaVbWXW6GFpY6e9Zu0fUSSpknXqMVjhDCCJrvNSfeKRD1TiIPWbELhOK07MjqOGyuisFNSmg4O26XHSyQqCW9YXBfhP1VbGRaQd2EtJk1d7WEA5H5kqNFGIJJvzexLQBVg9s1T6Gdou4lL85CU62_bi2_sZM3Mp-bkv3gBwIk6ZeNX77Qyr5UWkXCHyb1jPe6H_daEMO_eggK-BnUIHZf1WJYVLR9NlOZBLeN5n2AodZkmude0kkKRq5MhW4q807BxBSgvJb1R_j_RpOUyWQPLB7Pmkz0YrjpPFE-8ol1U9W_UuyF-wfHxBUCLcnueV0FMdv1TePeuah1NUYjN6TLtNmgih4dfsBY8cEDhxP8pUPZAvZgWBNkrKg-X_yvdvVJfF8ZAlSV]--></g></svg>